<svg height="464pt" viewBox="0 0 464 464" width="464pt" xmlns="http://www.w3.org/2000/svg"><path d="m408 48s-80 80-120 216c-7.679688 26-13.519531 49.359375-18 70.160156-2 8.960938-3.679688 17.441406-5.199219 25.359375-.402343 2.480469-.882812 4.960938-1.28125 7.359375-1.039062-3.359375-2.160156-6.800781-3.359375-10.320312-9.679687-29.199219-22.558594-64.480469-39.761718-106 3.683593-6.078125 7.519531-12.320313 11.601562-18.558594 4.640625-7.199219 9.359375-14.160156 14-20.878906 83.039062-120.082032 162-163.121094 162-163.121094zm0 0" fill="#5dab24"/><path d="m263.519531 366.960938c-11.4375 65.597656-7.519531 97.039062-7.519531 97.039062h-32s-9.601562-76.71875-39.917969-144.800781c-2.160156-4.960938-4.480469-9.839844-6.960937-14.640625-7.28125-14.558594-15.601563-28.320313-25.121094-40.558594-3.121094-4-6.320312-7.917969-9.679688-11.679688-3.441406-20.082031-8.078124-40.402343-14.320312-60.320312-38.082031-121.917969-83.441406-149.441406-87.679688-151.839844 5.839844 2.640625 90.640626 41.921875 152.960938 153.28125 8 14.316406 15.679688 29.839844 22.71875 46.558594 1.519531 3.601562 2.960938 7.121094 4.398438 10.558594 17.203124 41.519531 30.082031 76.800781 39.761718 106 1.199219 3.519531 2.320313 6.960937 3.359375 10.320312zm0 0" fill="#69c229"/><path d="m224 464h-80s-15.121094-50.160156-35.359375-95.601562v-.078126c-3.519531-27.679687-9.761719-58.402343-20.640625-88.320312-30.800781-84.800781-83.917969-132.480469-87.757812-135.839844 5.359374 2.71875 87.277343 44.878906 142.078124 108.160156 3.359376 3.761719 6.558594 7.679688 9.679688 11.679688 9.519531 12.238281 17.839844 26 25.121094 40.558594 2.480468 4.800781 4.796875 9.679687 6.957031 14.640625 30.320313 68.082031 39.921875 144.800781 39.921875 144.800781zm0 0" fill="#5dab24"/><path d="m416 368c0 10.71875.320312 20.800781.71875 30.160156-27.117188 25.121094-40.71875 65.839844-40.71875 65.839844h-24s-2.71875-38.242188 1.359375-87.601562v-.078126c7.679687-16.5625 17.761719-33.28125 30.640625-48.320312 46.480469-54.242188 78-70.960938 79.917969-71.917969-2.398438 2.796875-47.917969 57.359375-47.917969 111.917969zm0 0" fill="#5dab24"/><path d="m112 464h-112s24-24 24-56c0-31.28125-18.398438-38.480469-22.960938-39.761719 6.160157 1.121094 38.882813 8.160157 66.480469 28.960938v.082031c4.320313 3.199219 8.5625 6.800781 12.480469 10.71875 32 32 32 56 32 56zm0 0" fill="#47821b"/><path d="m463.757812 136.082031c-3.839843 2.878907-56.957031 43.117188-87.757812 127.917969-13.28125 36.558594-19.679688 77.28125-22.640625 112.320312v.078126c-4.078125 49.359374-1.359375 87.601562-1.359375 87.601562h-96s-3.917969-31.441406 7.519531-97.039062c0 0 0 0 0-.082032.398438-2.398437.878907-4.878906 1.28125-7.359375 1.519531-7.917969 3.199219-16.398437 5.199219-25.359375 15.121094-32.320312 36.398438-67.601562 66-102.160156 46.480469-54.242188 123.039062-93.519531 127.757812-95.917969zm0 0" fill="#4c8e1e"/><path d="m448 408c0 32 16 56 16 56h-88s13.601562-40.71875 40.71875-65.839844c2.320312-2.242187 4.722656-4.242187 7.28125-6.160156 32-24 40-24 40-24s-16 24-16 40zm0 0" fill="#47821b"/><path d="m144 464h-32s0-24-32-56c-3.917969-3.917969-8.160156-7.519531-12.480469-10.71875v-.082031c-1.917969-13.679688-5.359375-28.878907-11.519531-45.199219-23.039062-61.519531-53.519531-86.082031-55.839844-87.917969 3.441406.878907 59.121094 16.796875 87.839844 63.917969 7.199219 11.757812 14.160156 25.839844 20.640625 40.320312v.078126c20.238281 45.441406 35.359375 95.601562 35.359375 95.601562zm0 0" fill="#4c8e1e"/><path d="m246 211.121094c-4.640625 6.71875-9.359375 13.679687-14 20.878906-4.082031 6.238281-7.917969 12.480469-11.601562 18.558594-1.4375-3.4375-2.878907-6.957032-4.398438-10.558594-7.039062-16.71875-14.71875-32.242188-22.71875-46.558594 24.078125-123.921875 62.71875-193.441406 62.71875-193.441406s-11.917969 113.28125-10 211.121094zm0 0" fill="#6dc82a"/><g fill="#fff"><path d="m147.277344 187.980469c-3.191406 0-6.207032-1.921875-7.445313-5.070313l-6.320312-16.019531c-1.621094-4.109375.398437-8.753906 4.507812-10.375 4.113281-1.617187 8.761719.402344 10.375 4.507813l6.320313 16.019531c1.621094 4.109375-.398438 8.753906-4.507813 10.375-.960937.378906-1.957031.5625-2.929687.5625zm0 0"/><path d="m169.820312 261.800781c-3.691406 0-7.007812-2.566406-7.816406-6.324219-3.03125-14.148437-7.414062-28.074218-13.03125-41.390624-1.71875-4.074219.191406-8.765626 4.261719-10.480469 4.078125-1.734375 8.765625.195312 10.480469 4.261719 6.003906 14.242187 10.695312 29.132812 13.9375 44.257812.925781 4.320312-1.828125 8.570312-6.148438 9.5-.5625.121094-1.128906.175781-1.683594.175781zm0 0"/><path d="m193.582031 438.605469c-3.722656 0-7.058593-2.613281-7.832031-6.402344-6.257812-30.714844-16.375-60.589844-30.0625-88.792969-1.929688-3.972656-.273438-8.757812 3.703125-10.6875 3.957031-1.929687 8.757813-.28125 10.6875 3.703125 14.277344 29.40625 24.824219 60.554688 31.351563 92.582031.882812 4.328126-1.914063 8.554688-6.242188 9.4375-.539062.109376-1.078125.160157-1.605469.160157zm0 0"/><path d="m209.703125 211.023438c-.492187 0-.996094-.042969-1.5-.140626-4.339844-.824218-7.191406-5.007812-6.367187-9.351562l8.789062-46.347656c.820312-4.335938 4.972656-7.222656 9.351562-6.367188 4.339844.824219 7.191407 5.007813 6.367188 9.351563l-8.789062 46.347656c-.726563 3.835937-4.082032 6.507813-7.851563 6.507813zm0 0"/><path d="m222.890625 140.78125c-.707031 0-1.429687-.097656-2.144531-.296875-4.257813-1.179687-6.75-5.589844-5.566406-9.847656l3.625-13.046875c1.1875-4.25 5.609374-6.742188 9.855468-5.558594 4.257813 1.1875 6.746094 5.597656 5.558594 9.855469l-3.625 13.03125c-.980469 3.539062-4.199219 5.863281-7.703125 5.863281zm0 0"/><path d="m289.492188 346.519531c-.832032 0-1.679688-.132812-2.511719-.410156-4.195313-1.386719-6.472657-5.910156-5.082031-10.105469 4.277343-12.941406 9.710937-25.613281 16.140624-37.664062 2.078126-3.898438 6.921876-5.386719 10.824219-3.292969 3.898438 2.082031 5.371094 6.925781 3.292969 10.824219-6.003906 11.25-11.074219 23.078125-15.070312 35.15625-1.109376 3.359375-4.234376 5.492187-7.59375 5.492187zm0 0"/><path d="m320.070312 289.335938c-.902343 0-1.820312-.15625-2.71875-.480469-4.15625-1.503907-6.308593-6.089844-4.804687-10.242188 2.011719-5.570312 5.308594-10.707031 9.527344-14.863281 3.148437-3.101562 8.210937-3.0625 11.3125.085938 3.101562 3.148437 3.0625 8.210937-.085938 11.3125-2.527343 2.492187-4.5 5.570312-5.707031 8.90625-1.179688 3.253906-4.25 5.28125-7.523438 5.28125zm0 0"/><path d="m413.972656 454.394531c-1.140625 0-2.296875-.242187-3.394531-.757812-4-1.878907-5.722656-6.640625-3.84375-10.640625l9.21875-19.652344c1.878906-4.003906 6.644531-5.730469 10.640625-3.84375 4 1.878906 5.722656 6.640625 3.84375 10.640625l-9.21875 19.652344c-1.363281 2.902343-4.242188 4.601562-7.246094 4.601562zm0 0"/><path d="m48.289062 410.285156h-.726562c-4.417969 0-8-3.582031-8-8 0-4.417968 3.582031-8 8-8s8.363281 3.582032 8.363281 8c0 4.417969-3.21875 8-7.636719 8zm0 0"/><path d="m80.859375 448.707031c-2.589844 0-5.132813-1.253906-6.671875-3.574219-4.433594-6.671874-9.78125-12.691406-15.890625-17.886718-3.367187-2.859375-3.777344-7.90625-.914063-11.273438 2.859376-3.367187 7.910157-3.777344 11.273438-.914062 7.253906 6.160156 13.597656 13.300781 18.859375 21.222656 2.445313 3.679688 1.441406 8.644531-2.238281 11.089844-1.359375.902344-2.898438 1.335937-4.417969 1.335937zm0 0"/></g></svg>