<svg id="Layer_1" enable-background="new 0 0 511.999 511.999" height="512" viewBox="0 0 511.999 511.999" width="512" xmlns="http://www.w3.org/2000/svg"><g><g clip-rule="evenodd" fill-rule="evenodd"><path d="m191.391 500.282c-20.65-80.532-30.161-165.891-28.329-245.77-6.107-77.877-47.509-128.97-70.712-140.513-66.167 130.556 10.34 340.104 35.116 388h64.618z" fill="#f5fade"/><path d="m163.061 254.512c-1.832 79.879 7.679 165.238 28.329 245.77l.692 1.717h78.259l-.488-2.914c-7.341-61.066-.673-129.889 16.241-192.716 14.373-137.872-67.972-296.37-67.972-296.37-34.641 62.168-52.881 149.461-55.061 244.513z" fill="#eaf5bc"/><path d="m286.094 306.369c-16.913 62.827-23.582 131.651-16.241 192.716l.488 2.914h94.762l.363-2.792c6.659-49.988 2.578-143.534-19.353-242.725-4.429-20.035-9.587-40.3-15.532-60.483-18.415 31.839-33.581 69.858-44.487 110.37z" fill="#f5fade"/><path d="m346.114 256.482c21.931 99.191 26.012 192.737 19.353 242.725l-.363 2.792h45.772c57.377-168.194 36.996-346.421-7.362-399.492-26.514 48.808-44.107 84.6-57.4 153.975z" fill="#eaf5bc"/><g fill="#e0ef9b"><path d="m317.472 351.396c8.407 39.634 13.202 92.537 12.507 150.603h-28.675l.002-.174c.706-58.135 6.789-110.972 16.166-150.429z"/><path d="m392.733 255.743c6.561 40.042-9.1 121.975-16.143 180.061-2.47-20.765-7.845-53.576-12.996-78.383 5.484-36.07 12.955-62.603 29.139-101.678z"/><path d="m124.704 257.736c-3.444 54.78 18.548 165.212 30.086 243.734 12.218.529 18.087.529 36.6-1.188 10.67-.99-25.276-84.153-23.207-99.554-8.272-48.697-24.29-90.823-43.479-142.992z"/><ellipse cx="225.309" cy="306.641" rx="14.337" ry="150.614"/></g></g><path d="m455.334 258.603c-3.5-72.871-20.004-133.622-44.148-162.509-2.123-2.541-5.369-3.868-8.664-3.538-3.296.328-6.215 2.267-7.796 5.177-20.779 38.253-36.565 69.437-48.96 115.325-1.786-6.649-3.646-13.282-5.59-19.884-1.13-3.835-4.436-6.629-8.405-7.104-3.967-.475-7.842 1.461-9.844 4.922-9.356 16.174-17.83 33.781-25.342 52.373-3.93-52.173-17.198-102.519-29.591-140.021-18.826-56.964-39.142-96.308-39.998-97.955-1.696-3.265-5.049-5.335-8.728-5.389-3.693-.038-7.091 1.916-8.882 5.131-26.523 47.597-43.912 110.123-51.773 180.146-16.362-42.257-41.86-70.804-60.811-80.232-4.92-2.448-10.89-.468-13.374 4.433-69.269 136.675 11.46 351.311 35.154 397.115 1.718 3.32 5.144 5.405 8.882 5.405h283.411c4.278 0 8.083-2.722 9.465-6.771 26.476-77.611 38.904-165.198 34.994-246.624zm-127.684-35.871c27.24 103.524 35.098 210.042 28.615 269.267h-77.125c-5.979-57.325.325-122.292 16.396-182.353.154-.445.28-.903.371-1.376 8.203-30.336 18.881-59.397 31.743-85.538zm-109.856-190.215c20.376 44.775 69.299 165.596 58.411 272.223-16.449 61.675-23.01 128.271-17.181 187.26h-59.405c-19.568-78.523-28.349-159.754-26.79-235.349.205-.936.281-1.916.202-2.92-.033-.42-.073-.836-.108-1.255 2.176-84.536 17.34-161.785 44.871-219.959zm-121.315 96.209c19.914 16.267 51.073 59.154 56.534 125.698-1.782 76.441 6.738 158.347 26.01 237.575h-45.378c-30.638-63.265-87.987-246.103-37.166-363.273zm307.197 363.273h-27.306c5.47-54.016-.093-143.713-20.068-235.503 11.678-60.058 26.46-93.774 48.233-134.781 16.527 29.223 28.039 79.893 30.822 137.847 3.679 76.614-7.556 158.853-31.681 232.437z" fill="#89df8f"/></g></svg>