<svg id="Capa_1" enable-background="new 0 0 512 512" height="512" viewBox="0 0 512 512" width="512" xmlns="http://www.w3.org/2000/svg"><g><g><path clip-rule="evenodd" d="m136.757 412.702c20.977 0 38.071-17.099 38.071-38.083v-144.534h-27.156v144.534c0 5.974-4.943 10.919-10.915 10.919-6.002 0-10.945-4.944-10.945-10.919v-9.506c-2.354-17.452-25.39-16.569-27.156 0v9.506c.001 20.984 17.124 38.083 38.101 38.083z" fill="#ffdecf" fill-rule="evenodd"/></g><g><path clip-rule="evenodd" d="m241.937 455.7v-227.675h-27.156v227.675c0 5.974-4.943 10.919-10.945 10.919-5.972 0-10.915-4.944-10.915-10.919v-9.506c-2.354-17.452-25.39-16.569-27.156 0v9.506c0 20.984 17.094 38.083 38.071 38.083 20.978 0 38.101-17.099 38.101-38.083z" fill="#ffdecf" fill-rule="evenodd"/></g><g><path clip-rule="evenodd" d="m304.721 473.917v-247.952h-27.156v247.953c0 20.984 17.094 38.083 38.071 38.083s38.1-17.099 38.1-38.083v-9.506c-1.765-16.569-24.802-17.452-27.155 0v9.506c0 5.974-4.943 10.919-10.945 10.919-5.972-.001-10.915-4.946-10.915-10.92z" fill="#ffdecf" fill-rule="evenodd"/></g><g><path clip-rule="evenodd" d="m364.328 374.619v-146.594h-27.156v146.594c0 20.984 17.123 38.083 38.1 38.083 20.948 0 38.071-17.099 38.071-38.083v-9.506c-1.765-16.569-24.802-17.452-27.156 0v9.506c0 5.974-4.943 10.919-10.915 10.919-6.001 0-10.944-4.945-10.944-10.919z" fill="#ffdecf" fill-rule="evenodd"/></g><g><path clip-rule="evenodd" d="m406.4 217.667v-20.66l-168.935-26.634-131.865 26.634v20.66c0 11.36 9.297 20.66 20.653 20.66h249.078 10.444c11.357 0 20.625-9.3 20.625-20.66z" fill="#fe8d94" fill-rule="evenodd"/></g><g><path clip-rule="evenodd" d="m406.4 217.667v-20.66h-56.665v20.66c0 11.36-9.297 20.66-20.654 20.66h12.092 34.158 10.444c11.357 0 20.625-9.3 20.625-20.66z" fill="#ff6d75" fill-rule="evenodd"/></g><g><path clip-rule="evenodd" d="m446.589 154.598v19.659c0 12.508-12.798 22.75-28.45 22.75h-324.248c-15.681 0-28.479-10.212-28.479-22.75v-19.659c-.001-206.072 380.618-206.189 381.177 0z" fill="#ffdecf" fill-rule="evenodd"/></g><g><path clip-rule="evenodd" d="m446.589 154.598c-.294-113.337-115.448-164.339-219.098-153.068 84.909 9.241 162.168 60.244 162.433 153.067v19.659c0 6.651-3.619 12.655-9.356 16.834-5.06 3.679-11.768 5.916-19.124 5.916h56.694c15.652 0 28.45-10.242 28.45-22.75v-19.658z" fill="#ffcebe" fill-rule="evenodd"/></g><g><path clip-rule="evenodd" d="m184.213 115.514c0-10.242-8.532-18.512-19.065-18.512-10.503 0-19.035 8.27-19.035 18.512s8.532 18.541 19.035 18.541c10.533 0 19.065-8.299 19.065-18.541z" fill="#fe8d94" fill-rule="evenodd"/></g><g><path clip-rule="evenodd" d="m251.322 100.299c15.122 0 27.391-11.919 27.391-26.634s-12.269-26.635-27.391-26.635c-15.152 0-27.42 11.919-27.42 26.634s12.268 26.635 27.42 26.635z" fill="#fe8d94" fill-rule="evenodd"/></g><g><path clip-rule="evenodd" d="m340.556 117.162c11.445 0 20.712-9.006 20.712-20.101 0-11.125-9.268-20.13-20.712-20.13-11.445 0-20.712 9.006-20.712 20.13-.001 11.096 9.267 20.101 20.712 20.101z" fill="#fe8d94" fill-rule="evenodd"/></g></g></svg>