<svg height="512pt" viewBox="-4 0 512 512" width="512pt" xmlns="http://www.w3.org/2000/svg"><g fill="#df4d60"><path d="m381.84375 329.761719c-2.519531.003906-4.914062-1.085938-6.566406-2.988281-1.648438-1.902344-2.390625-4.429688-2.035156-6.921876l7.691406-53.800781-88.839844-32.265625c-4.503906-1.640625-6.828125-6.621094-5.1875-11.125 1.640625-4.507812 6.621094-6.828125 11.125-5.191406l95.457031 34.714844c3.863281 1.402344 6.207031 5.320312 5.625 9.386718l-8.679687 60.746094c-.613282 4.273438-4.273438 7.445313-8.589844 7.445313zm0 0"/><path d="m329.777344 338.441406c-.480469 0-.960938-.039062-1.433594-.121094-2.269531-.378906-4.296875-1.644531-5.636719-3.519531-1.335937-1.871093-1.875-4.199219-1.496093-6.46875l7.695312-46.238281-81.710938-49.03125c-2.71875-1.566406-4.378906-4.476562-4.34375-7.617188.039063-3.136718 1.765626-6.007812 4.519532-7.515624 2.753906-1.503907 6.101562-1.402344 8.761718.261718l86.78125 52.066406c3.054688 1.835938 4.675782 5.355469 4.085938 8.867188l-8.675781 52.070312c-.699219 4.175782-4.3125 7.238282-8.546875 7.246094zm0 0"/><path d="m277.707031 347.117188c-.480469.003906-.957031-.035157-1.429687-.121094-2.273438-.378906-4.300782-1.640625-5.636719-3.515625-1.339844-1.875-1.878906-4.199219-1.5-6.472657l7.882813-47.292968-65.78125-57.5625c-2.574219-1.96875-3.835938-5.207032-3.273438-8.394532.558594-3.191406 2.851562-5.804687 5.941406-6.777343 3.09375-.972657 6.46875-.140625 8.753906 2.15625l69.421876 60.746093c2.265624 1.980469 3.339843 4.988282 2.847656 7.957032l-8.679688 52.066406c-.710937 4.164062-4.320312 7.210938-8.546875 7.210938zm0 0"/><path d="m199.605469 338.441406c-1.101563 0-2.195313-.210937-3.21875-.617187l-40.171875-16.070313-40.167969 16.070313c-2.882813 1.152343-6.15625.675781-8.59375-1.242188-2.433594-1.917969-3.664063-4.992187-3.21875-8.0625.445313-3.070312 2.492187-5.667969 5.371094-6.820312l43.390625-17.355469c2.070312-.816406 4.371094-.816406 6.441406 0l43.386719 17.355469c3.871093 1.542969 6.097656 5.613281 5.3125 9.703125-.789063 4.089844-4.367188 7.042968-8.53125 7.039062zm0 0"/><path d="m199.605469 373.152344c-1.101563 0-2.195313-.210938-3.21875-.617188l-39.769531-15.871094-31.242188 15.621094c-2.773438 1.386719-6.078125 1.1875-8.667969-.523437-2.585937-1.710938-4.066406-4.671875-3.878906-7.769531.1875-3.09375 2.011719-5.855469 4.789063-7.242188l34.710937-17.355469c2.21875-1.097656 4.796875-1.207031 7.097656-.292969l43.390625 17.355469c3.808594 1.574219 5.984375 5.609375 5.207032 9.65625-.78125 4.046875-4.296876 6.988281-8.417969 7.039063zm0 0"/><path d="m199.605469 407.863281c-1.101563 0-2.195313-.207031-3.21875-.613281l-40.441407-16.1875-23.019531 7.679688c-4.554687 1.515624-9.472656-.945313-10.988281-5.5-1.515625-4.554688.949219-9.472657 5.503906-10.988282l26.03125-8.675781c1.949219-.644531 4.058594-.582031 5.964844.171875l43.386719 17.355469c3.894531 1.527343 6.144531 5.613281 5.355469 9.71875-.789063 4.105469-4.394532 7.066406-8.574219 7.039062zm0 0"/></g><path d="m501.6875 143.96875c-8.90625 12.117188-18.433594 23.757812-28.550781 34.882812-17.097657 13.417969-36.46875 23.648438-57.1875 30.199219-33.707031 9.804688-68.601563 14.917969-103.703125 15.1875-.78125 0-1.5625.085938-2.34375.085938-9.71875.347656-19.4375.433593-29.070313.347656-20.914062-.085937-41.828125-.78125-62.828125.175781-28.726562 1.300782-60.3125 10.410156-81.226562 31.066406-21.78125 21.519532-27.855469 53.023438-23.949219 82.527344 17.355469 130.167969 164.878906 130.167969 182.234375 121.492188 17.355469-8.679688 8.679688-86.78125 43.390625-95.460938 34.710937-8.675781 34.710937 26.035156 34.710937 26.035156 0-8.675781 16.835938-13.449218 23.433594-13.363281 10.585938.429688 20.519532 5.238281 27.421875 13.277344 4.425781 4.785156 7.820313 10.425781 9.976563 16.574219 1.210937 5.820312 1.707031 11.765625 1.476562 17.703125 13.105469 5.121093 24.472656 10.328125 24.472656 26.554687 0 26.035156-52.066406 60.746094-138.847656 60.746094-47.382812 0-138.585937-5.207031-211.742187-45.125-4.6875-2.515625-9.285157-5.207031-13.796875-7.984375-36.316406-21.984375-64.488282-55.183594-80.273438-94.589844-2.167968-5.554687-4.164062-11.28125-5.898437-17.183593-6.457031-22.566407-9.613281-45.949219-9.3750002-69.421876-.03125-12.382812.9570312-24.746093 2.9531252-36.96875.742187-4.910156 1.757812-9.777343 3.035156-14.578124 9.796875-44.984376 36.515625-84.476563 74.632812-110.296876 4.597657-3.125 9.195313-5.988281 13.882813-8.679687 5.378906-3.125 10.847656-5.898437 16.316406-8.503906 67.773438-32.019531 146.308594-29.246094 220.503907-29.246094h163.320312c3.289062 0 6.292969 1.859375 7.761719 4.800781 1.46875 2.9375 1.152343 6.457032-.820313 9.085938l-22.5625 20.828125c-2.34375 3.074219-2.34375 7.335937 0 10.414062 4.949219 6.59375 17.617188 12.667969 22.5625 19.175781 2.285156 3.023438 2.320313 7.179688.089844 10.242188zm0 0" fill="#ff5364"/><path d="m459.945312 451.253906c0 26.035156-52.066406 60.746094-138.847656 60.746094 0 0-43.390625-8.679688-26.035156-52.066406 17.355469-8.679688 8.679688-86.78125 43.390625-95.460938 34.710937-8.675781 34.710937 26.035156 34.710937 26.035156 0-8.675781 16.835938-13.449218 23.433594-13.363281 10.585938.429688 20.519532 5.238281 27.421875 13.277344 4.425781 4.785156 7.820313 10.425781 9.976563 16.574219 1.210937 5.820312 1.707031 11.765625 1.476562 17.703125 13.105469 5.121093 24.472656 10.328125 24.472656 26.554687zm0 0" fill="#df4d60"/><path d="m355.808594 121.492188c0 9.585937-7.769532 17.355468-17.355469 17.355468s-17.355469-7.769531-17.355469-17.355468c0-9.585938 7.769532-17.355469 17.355469-17.355469s17.355469 7.769531 17.355469 17.355469zm0 0" fill="#fff"/><path d="m347.132812 121.492188c0 4.792968-3.886718 8.675781-8.679687 8.675781s-8.675781-3.882813-8.675781-8.675781c0-4.792969 3.882812-8.679688 8.675781-8.679688s8.679687 3.886719 8.679687 8.679688zm0 0" fill="#2c2f38"/><path d="m390.519531 164.882812c-4.792969 0-8.675781-3.886718-8.675781-8.679687s3.882812-8.675781 8.675781-8.675781c23.953125-.03125 43.363281-19.441406 43.390625-43.390625v-26.035157c-.039062-33.53125-27.210937-60.707031-60.746094-60.746093h-190.914062c-4.792969 0-8.679688-3.886719-8.679688-8.675781 0-4.792969 3.886719-8.679688 8.679688-8.679688h190.914062c43.117188.046875 78.054688 34.988281 78.101563 78.101562v26.035157c-.035156 33.53125-27.210937 60.707031-60.746094 60.746093zm0 0" fill="#fb7b76"/><path d="m312.246094 224.238281c-.78125 0-1.5625.085938-2.34375.085938-9.71875.347656-19.4375.433593-29.070313.347656-19.304687-13.632813-30.304687-36.183594-29.160156-59.789063 0-4.792968 3.886719-8.679687 8.679687-8.679687 4.792969 0 8.679688 3.886719 8.679688 8.679687 0 44.429688 34.882812 51.980469 36.445312 52.238282 3.511719.746094 6.203126 3.574218 6.769532 7.117187zm0 0" fill="#2c2f38"/><path d="m355.808594 485.964844c-4.0625.050781-7.617188-2.726563-8.550782-6.683594-.933593-3.957031 1.003907-8.03125 4.664063-9.804688l52.066406-26.03125c4.289063-2.144531 9.503907-.402343 11.648438 3.886719 2.140625 4.289063.398437 9.503907-3.890625 11.644531l-52.066406 26.035157c-1.199219.613281-2.523438.941406-3.871094.953125zm0 0" fill="#fb7b76"/><path d="m338.453125 459.933594c-3.199219-.003906-6.136719-1.765625-7.644531-4.589844-1.507813-2.820312-1.34375-6.246094.433594-8.90625l17.355468-26.035156c1.722656-2.578125 4.6875-4.042969 7.78125-3.84375 3.09375.203125 5.847656 2.039062 7.21875 4.816406 1.375 2.78125 1.160156 6.082031-.558594 8.660156l-17.355468 26.035156c-1.613282 2.414063-4.328125 3.863282-7.230469 3.863282zm0 0" fill="#fb7b76"/><path d="m147.105469 185.015625c-1.195313 3.535156-4.515625 5.910156-8.246094 5.898437-.941406-.023437-1.875-.167968-2.777344-.433593-43.996093-14.664063-46.859375-58.226563-41.566406-83.308594 5.378906-3.125 10.847656-5.898437 16.316406-8.503906 1.785157 2.179687 2.398438 5.09375 1.648438 7.8125-1.691407 6.574219-2.539063 13.339843-2.519531 20.132812-1.699219 21.226563 11.410156 40.839844 31.675781 47.378907 4.523437 1.566406 6.957031 6.472656 5.46875 11.023437zm0 0" fill="#fb7b76"/><path d="m104.0625 250.273438c.375 2.277343-.175781 4.613281-1.527344 6.488281-1.351562 1.871093-3.394531 3.128906-5.675781 3.492187-7.515625 1.25-15.117187 1.890625-22.738281 1.90625-25.113282.304688-49.734375-6.984375-70.636719-20.914062-.195313-.148438-.371094-.324219-.519531-.519532.742187-4.910156 1.757812-9.777343 3.035156-14.578124 2.667969-.949219 5.636719-.492188 7.898438 1.214843 18.015624 11.609375 39.054687 17.644531 60.484374 17.355469 6.601563-.019531 13.1875-.570312 19.699219-1.648438 2.277344-.375 4.613281.171876 6.488281 1.527344 1.871094 1.351563 3.128907 3.394532 3.492188 5.675782zm0 0" fill="#fb7b76"/><path d="m82.886719 345.644531c-21.78125 14.578125-53.804688 17.875-67.601563 18.65625-2.167968-5.554687-4.164062-11.28125-5.898437-17.183593 5.640625-.085938 42.171875-1.386719 63.953125-15.878907 3.949218-2.117187 8.863281-.882812 11.335937 2.851563 2.476563 3.738281 1.699219 8.742187-1.789062 11.554687zm0 0" fill="#fb7b76"/><path d="m129.226562 437.804688c-4.921874 10.28125-11.292968 19.808593-18.917968 28.289062-.300782.28125-.617188.542969-.953125.78125-4.6875-2.515625-9.285157-5.207031-13.796875-7.984375.222656-1.925781 1.078125-3.726563 2.429687-5.121094 6.382813-7.121093 11.703125-15.128906 15.792969-23.777343 2.34375-3.894532 7.292969-5.320313 11.351562-3.269532 4.054688 2.050782 5.84375 6.882813 4.09375 11.082032zm0 0" fill="#fb7b76"/><path d="m338.453125 112.8125c-.019531 4.078125-2.871094 7.589844-6.855469 8.445312-3.984375.855469-8.03125-1.175781-9.71875-4.886718 1.722656-5.457032 6-9.730469 11.453125-11.453125 3.109375 1.398437 5.113281 4.484375 5.121094 7.894531zm0 0" fill="#fff"/></svg>