<svg height="503pt" viewBox="-4 0 503 503.67255" width="503pt" xmlns="http://www.w3.org/2000/svg"><path d="m208.609375 269.019531s-55.964844 50.679688-90.679687 42c-34.710938-8.679687 0-34.710937 0-34.710937s-43.386719-17.355469-8.675782-43.390625v1.386719c-.261718-.257813-.609375-.433594-.867187-.691407-33.152344-25.601562 9.542969-42.695312 9.542969-42.695312s-34.710938-26.035157 0-34.714844c26.46875-6.59375 84.785156 29.332031 94.589843 38.53125zm0 0" fill="#ff5364"/><path d="m147.863281 269.019531c-4.324219-.007812-7.980469-3.195312-8.582031-7.472656-.601562-4.28125 2.039062-8.351563 6.195312-9.546875l40.941407-11.707031-42.894531-24.488281c-4.035157-2.433594-5.390626-7.644532-3.054688-11.734376 2.339844-4.09375 7.515625-5.570312 11.664062-3.332031l60.746094 34.714844c3.023438 1.730469 4.71875 5.109375 4.300782 8.570313-.417969 3.460937-2.867188 6.339843-6.21875 7.300781l-60.746094 17.355469c-.765625.222656-1.558594.335937-2.351563.339843zm0 0" fill="#df4d60"/><path d="m61.082031 134.507812c0 16.777344-13.597656 30.375-30.371093 30.375-16.777344 0-30.375-13.597656-30.375-30.375 0-16.773437 13.597656-30.371093 30.375-30.371093 16.773437 0 30.371093 13.597656 30.371093 30.371093zm0 0" fill="#84b5cb"/><path d="m87.117188 26.035156c0 9.585938-7.773438 17.355469-17.355469 17.355469-9.585938 0-17.359375-7.769531-17.359375-17.355469 0-9.585937 7.773437-17.355468 17.359375-17.355468 9.582031 0 17.355469 7.769531 17.355469 17.355468zm0 0" fill="#84b5cb"/><path d="m43.726562 69.425781c0 4.792969-3.886718 8.675781-8.679687 8.675781s-8.675781-3.882812-8.675781-8.675781 3.882812-8.679687 8.675781-8.679687 8.679687 3.886718 8.679687 8.679687zm0 0" fill="#547580"/><path d="m468.945312 438.238281c0 16.773438-13.597656 30.375-30.371093 30.375-16.773438 0-30.375-13.601562-30.375-30.375 0-16.773437 13.601562-30.371093 30.375-30.371093 16.773437 0 30.371093 13.597656 30.371093 30.371093zm0 0" fill="#84b5cb"/><path d="m494.980469 355.796875c0 9.585937-7.769531 17.355469-17.355469 17.355469s-17.355469-7.769532-17.355469-17.355469 7.769531-17.355469 17.355469-17.355469 17.355469 7.769532 17.355469 17.355469zm0 0" fill="#547580"/><path d="m451.589844 321.085938c0 4.792968-3.882813 8.679687-8.675782 8.679687-4.792968 0-8.679687-3.886719-8.679687-8.679687 0-4.792969 3.886719-8.679688 8.679687-8.679688 4.792969 0 8.675782 3.886719 8.675782 8.679688zm0 0" fill="#84b5cb"/><path d="m399.523438 116.980469c0 21.867187-10.585938 39.746093-18.398438 39.222656-2.558594-.382813-4.960938-1.460937-6.941406-3.121094-37.402344-25.339843-86.257813-9.375-126.613282-26.554687-3.382812-1.476563-23.691406-15.96875-21.605468-22.390625-5.902344 17.875-2.953125 40.179687 12.320312 52.066406 16.230469 12.585937 39.136719 8.332031 58.144532 13.972656 34.722656 10.289063 60.640624 39.328125 66.925781 74.992188 6.289062 35.667969-8.136719 71.820312-37.25 93.359375-15.792969 11.714844-45.644531 13.710937-74.019531 17.964844-35.753907 5.46875-69.253907 14.492187-69.511719 51.375-.175781 28.550781 13.882812 48.59375 43.300781 52.066406 33.84375 3.90625 69.945312-5.726563 92.769531-31.933594 6.769531-7.898438 20.132813-24.820312 20.132813-36.621094 3.730468 70.375-50.679688 112.636719-95.457032 112.292969-53.976562-.433594-112.378906-35.058594-112.554687-94.679687.875-19.066407 8.257813-37.257813 20.914063-51.546876 9.980468-12.929687 22.476562-25.511718 33.238281-39.136718 3.46875-4.511719 6.855469-9.113282 9.890625-13.882813 3.929687-6.039062 7.160156-12.5 9.632812-19.265625 1.863282-5.1875 3.117188-10.578125 3.730469-16.054687.277344-2.449219.421875-4.910157.4375-7.375 0-6.394531-.695313-12.765625-2.085937-19.007813-.984376-4.945312-2.316407-9.820312-3.992188-14.578125-2.347656-6.976562-5.160156-13.789062-8.414062-20.394531-2.433594-5.117188-5.121094-10.152344-7.8125-15.097656-3.558594-6.59375-7.203126-13.015625-10.761719-19.265625-.605469-1.128907-1.214844-2.167969-1.820313-3.210938-2.171875-3.90625-4.339844-7.550781-6.25-11.105469-13.832031-21.5-20.679687-46.746093-19.609375-72.289062 0-50.765625 45.472657-84.785156 86.777344-86.78125 2.953125-.171875 5.816406 17.355469 8.679687 17.355469 52.066407 0 64.304688 30.980469 71.765626 43.390625 3.996093 8.980468 9.035156 17.453125 15.011718 25.253906 17.355469 17.355469 60.746094 22.300781 69.425782 30.980469zm0 0" fill="#fb7b76"/><g fill="#ff5364"><path d="m204.789062 154.730469-26.035156 17.355469c-.949218.679687-2.050781 1.128906-3.210937 1.300781-.605469-1.128907-1.214844-2.167969-1.820313-3.210938-2.171875-3.90625-4.339844-7.550781-6.25-11.105469.492188-.53125 1.042969-.996093 1.648438-1.390624l26.035156-17.355469c3.964844-2.34375 9.070312-1.183594 11.628906 2.644531 2.5625 3.832031 1.683594 8.992188-1.996094 11.761719zm0 0"/><path d="m229.867188 189.960938-34.710938 17.355468c-.332031.183594-.679688.328125-1.039062.433594-2.433594-5.117188-5.121094-10.152344-7.8125-15.097656.316406-.335938.703124-.601563 1.128906-.78125l34.710937-17.355469c2.796875-1.765625 6.351563-1.789063 9.171875-.058594 2.820313 1.730469 4.410156 4.910157 4.101563 8.203125-.308594 3.292969-2.460938 6.125-5.550781 7.300782zm0 0"/><path d="m255.207031 225.019531-43.390625 17.355469c-1.015625.417969-2.109375.625-3.207031.609375-.703125 0-1.402344-.089844-2.085937-.261719-.984376-4.945312-2.316407-9.820312-3.992188-14.578125.8125-.828125 1.789062-1.480469 2.867188-1.910156l43.386718-17.355469c2.882813-1.144531 6.160156-.667968 8.597656 1.253906 2.433594 1.925782 3.65625 5 3.210938 8.070313-.449219 3.074219-2.503906 5.671875-5.386719 6.816406zm0 0"/><path d="m260.5 288.109375c-.824219 4.042969-4.378906 6.945313-8.503906 6.941406-.550782-.011719-1.101563-.070312-1.648438-.171875l-43.390625-8.679687c-.898437-.179688-1.75-.53125-2.515625-1.039063 1.863282-5.1875 3.117188-10.578125 3.730469-16.054687.722656-.101563 1.460937-.074219 2.171875.085937l43.390625 8.679688c2.253906.457031 4.234375 1.796875 5.503906 3.714844 1.269531 1.921874 1.722657 4.269531 1.261719 6.523437zm0 0"/><path d="m224.488281 334.535156c-1.578125 2.445313-4.292969 3.917969-7.203125 3.90625-1.707031.019532-3.375-.496094-4.773437-1.476562l-26.03125-17.355469c-.558594-.390625-1.078125-.824219-1.5625-1.300781 3.46875-4.511719 6.855469-9.113282 9.890625-13.882813l1.300781.78125 26.035156 17.355469c1.914063 1.265625 3.238281 3.246094 3.679688 5.496094.4375 2.25-.042969 4.585937-1.335938 6.476562zm0 0"/><path d="m364.8125 261.730469c-.105469 30.261719-14.445312 58.710937-38.707031 76.796875-15.792969 11.714844-45.644531 13.710937-74.019531 17.964844 0 0 86.34375-54.929688 21.78125-189.960938 7.617187.496094 15.171874 1.714844 22.5625 3.644531 40.585937 11.960938 68.429687 49.242188 68.382812 91.554688zm0 0"/></g><path d="m295.386719 69.425781c0 9.585938-7.769531 17.355469-17.355469 17.355469s-17.355469-7.769531-17.355469-17.355469c0-9.585937 7.769531-17.355469 17.355469-17.355469s17.355469 7.769532 17.355469 17.355469zm0 0" fill="#fff"/><path d="m286.710938 69.425781c0 4.792969-3.886719 8.675781-8.679688 8.675781s-8.679688-3.882812-8.679688-8.675781 3.886719-8.679687 8.679688-8.679687 8.679688 3.886718 8.679688 8.679687zm0 0" fill="#2c2f38"/><path d="m278.03125 60.746094c-.019531 4.078125-2.871094 7.589844-6.855469 8.445312-3.984375.855469-8.03125-1.175781-9.71875-4.886718 1.722657-5.457032 5.996094-9.730469 11.453125-11.453126 3.109375 1.394532 5.113282 4.484376 5.121094 7.894532zm0 0" fill="#fff"/></svg>