<svg id="Layer_1" height="512" viewBox="0 0 512 512" width="512" xmlns="http://www.w3.org/2000/svg" data-name="Layer 1"><path d="m143.5 204.54h.01c13.52-26.85 32.5-50.9 51.19-67.48l-.13-.14a124.323 124.323 0 0 0 23.37-125.92 124.087 124.087 0 0 1 38.42 94.16 56.1 56.1 0 0 1 6.39-.38 45.665 45.665 0 0 1 11.15 1.55c-1.3-28.33 6.56-60.24 28.46-81.16-16.63 44.6 9.21 93.04 38.65 126.34 24.62 25.98 47.14 61.55 57.99 103.55a214.332 214.332 0 0 1 5.74 31.97 210.245 210.245 0 0 1 1.08 21.31c0 26.98-3.24 57.01-11.59 85.17 12.18-9.95 22.74-24.27 33.72-50.57 4.85 49.05-24.25 93.74-56.56 101.13v.01c-22.02 33.4-56.5 56.92-108.64 56.92-68.92 0-105.36-34.31-124.17-78.59a202.4 202.4 0 0 1 -10.04-30.53c-6.9-27.9-8.85-57.39-8.85-83.54a233.6 233.6 0 0 1 11.23-71.66c-21.78-24.97-15.82-73.01 9.15-94.79-8.67 25.34-6.5 47.28 3.43 62.65z" fill="#ff5a81"/><g opacity=".4"><path d="m417.705 364.339c-7.5 13.433-15.1 22.334-23.475 29.171 1.851-6.244 3.438-12.582 4.807-18.957a52.123 52.123 0 0 1 -17.448 3.3v.01c-28.778 27.79-67.56 43.219-118.442 31.841-67.26-15.04-95.334-56.474-104.029-103.792a202.442 202.442 0 0 1 -3.136-31.985c-.645-28.733 3.887-57.938 9.593-83.458a234.083 234.083 0 0 1 10.569-34.513 239.827 239.827 0 0 0 -32.632 48.58h-.01c-9.93-15.37-12.1-37.31-3.43-62.65-24.97 21.78-30.93 69.82-9.15 94.79a233.6 233.6 0 0 0 -11.23 71.66c0 26.15 1.95 55.64 8.85 83.54a202.4 202.4 0 0 0 10.04 30.53c18.808 44.284 55.248 78.594 124.168 78.594 52.14 0 86.62-23.52 108.64-56.92v-.01c29.64-6.779 56.558-44.955 57.063-89.085a92.736 92.736 0 0 1 -10.748 9.354z" fill="#ffb3c9"/></g><path d="m415.24 195.66c19.55 26.76 16.26 71.82-10.5 91.37a214.332 214.332 0 0 0 -5.74-31.97c12.47-12.87 19.03-33.43 16.24-59.4z" fill="#ff5a81"/><path d="m138.58 422.41-.5.21c-32.86-4.31-57.38-42.27-53.07-75.12 10.11 24.34 25.92 39.28 43.22 44.46l.31-.08a202.4 202.4 0 0 0 10.04 30.53z" fill="#ff5a81"/><g fill="#ffb3c9"><path d="m197.342 348.941a6 6 0 0 1 -5.95-5.289c-2.257-18.885-12.117-41.557-25.833-60.125-5.2 18.97-2.331 36.1 2.333 45.943a6 6 0 0 1 -10.844 5.14c-6.525-13.764-10.212-39.214.869-65.64a6 6 0 0 1 10.067-1.61c18.872 21.778 32.407 50.465 35.324 74.869a6.005 6.005 0 0 1 -5.966 6.712z"/><path d="m262.212 271.01h-.112a6 6 0 0 1 -5.893-6.105c.4-23.03 1.08-61.577 23.753-86.988a6 6 0 0 1 9.718 1.074c11.422 20.5 19.4 49.369 19.4 70.21a6 6 0 0 1 -12 0c0-16.353-5.443-38.233-13.671-56.058-14.325 22.071-14.864 52.811-15.2 71.973a6 6 0 0 1 -5.995 5.894z"/></g></svg>