<svg height="503pt" viewBox="0 -37 503.9284 503" width="503pt" xmlns="http://www.w3.org/2000/svg"><path d="m209.628906 311.011719c.085938.082031.167969.082031.253906.167969-25.265624 14.6875-56.992187 16.617187-92.078124 16.617187-24.230469-.316406-46.726563 12.539063-58.753907 33.574219 0 0-16.199219-32.648438 22.496094-65.46875-4.75.019531-9.488281-.546875-14.101563-1.679688-19.929687-4.992187-41.019531-1.980468-58.753906 8.394532 0 0-7.386718-22.660157 50.695313-47.757813-17.582031 1.011719-35.109375-2.792969-50.695313-10.996094 38.777344-7.722656 41.546875-30.300781 41.800782-33.65625-33.574219-2.183593-41.800782-39.113281-41.800782-39.113281s33.574219 30.804688 67.148438-19.558594c13.847656-20.816406 29.964844-26.019531 43.308594-24.761718h.085937c.269531.160156.550781.296874.839844.421874 8.667969 3.136719 17.132812 6.808594 25.347656 10.996094.082031 0 .082031.082032.167969.082032 22.492187 11.332031 51.199218 30.300781 56.152344 55.230468.523437 3.121094 1.921874 6.03125 4.027343 8.394532-10.265625.066406-18.972656 7.550781-20.582031 17.6875-1.613281 10.140624 4.347656 19.953124 14.085938 23.199218 9.738281 3.246094 20.394531-1.027344 25.191406-10.105468 4.792968-9.074219 2.316406-20.289063-5.851563-26.503907 14.53125-2.871093 27.179688-11.738281 34.832031-24.421875l.585938 8.558594c52.964844 75.710938-44.402344 120.699219-44.402344 120.699219zm0 0" fill="#f09372"/><path d="m245.664062 67.382812c35.476563-55.691406 107.835938-74.703124 166.105469-43.644531 77.039063 41.074219 106.199219 136.820313 65.132813 213.863281-51.285156 96.273438-170.972656 124.726563-267.246094 73.441407 0 0 97.363281-44.988281 44.402344-120.695313zm0 0" fill="#fdd7ad"/><path d="m320.339844 230.675781c-14.601563-.007812-28.976563-3.617187-41.847656-10.507812-11.644532-6.15625-22.0625-14.390625-30.746094-24.289063-2.742188-3.503906-2.273438-8.542968 1.070312-11.480468 3.339844-2.9375 8.394532-2.753907 11.519532.417968 7.347656 8.371094 16.167968 15.324219 26.019531 20.519532 35.359375 18.828124 79.28125 5.425781 98.109375-29.929688 14.585937-27.460938 4.183594-61.546875-23.25-76.1875-21.160156-11.257812-47.441406-3.265625-58.753906 17.871094-8.535157 16.117187-2.429688 36.101562 13.65625 44.695312 5.828124 3.097656 12.648437 3.75 18.953124 1.804688 6.246094-1.902344 11.472657-6.21875 14.511719-11.996094 2.273438-4.234375 2.765625-9.199219 1.371094-13.796875s-4.5625-8.453125-8.808594-10.710937c-2.644531-1.410157-4.339843-4.125-4.445312-7.121094-.101563-3 1.402343-5.824219 3.945312-7.414063 2.546875-1.585937 5.742188-1.695312 8.390625-.289062 8.167969 4.347656 14.273438 11.761719 16.972656 20.613281 2.695313 8.851562 1.761719 18.414062-2.59375 26.574219-5.171874 9.726562-14 17-24.535156 20.214843-10.535156 3.214844-21.917968 2.113282-31.640625-3.066406-24.269531-12.953125-33.476562-43.101562-20.589843-67.40625 7.5-14.113281 20.308593-24.664062 35.601562-29.316406 15.292969-4.65625 31.804688-3.03125 45.898438 4.511719 35.589843 19.015625 49.074218 63.25 30.140624 98.882812-11.066406 20.964844-30.066406 36.621094-52.761718 43.472657-8.484375 2.597656-17.3125 3.925781-26.1875 3.933593zm0 0" fill="#f0785a"/><path d="m205.769531 201.898438c-2.105469-2.363282-3.503906-5.273438-4.027343-8.394532-4.953126-24.929687-33.660157-43.898437-56.152344-55.230468-.085938 0-.085938-.082032-.167969-.082032-8.214844-4.1875-16.679687-7.859375-25.347656-10.996094-1.429688-.589843-2.269531-.839843-2.269531-.839843 33.574218-8.394531 41.96875-25.179688 67.148437-58.753907 25.179687-33.574218 58.753906 8.394532 58.753906 8.394532 51.957031 71.425781 3.359375 127.832031-25.09375 130.179687" fill="#f0785a"/><path d="m53.589844 218.683594c-6.40625.046875-12.757813-1.109375-18.734375-3.40625-27.003907-10.519532-34.0625-41.078125-34.363281-42.363282-.800782-3.582031.816406-7.265624 3.996093-9.101562 3.175781-1.832031 7.175781-1.390625 9.878907 1.09375 6.34375 5.15625 14.449218 7.632812 22.59375 6.898438 11.078124-1.417969 21.824218-9.800782 31.894531-24.925782 17.8125-26.757812 38.324219-30 52.390625-28 4.59375.648438 7.789062 4.898438 7.136718 9.492188-.652343 4.589844-4.902343 7.785156-9.492187 7.132812-13.734375-1.972656-25.507813 4.835938-36.09375 20.683594-12.960937 19.480469-27.773437 30.347656-44.015625 32.28125-4.207031.515625-8.464844.40625-12.640625-.335938 3.816406 5.121094 8.972656 9.089844 14.898437 11.472657 15.613282 6.027343 37.570313-.445313 63.5625-18.632813 3.796876-2.488281 8.878907-1.511718 11.480469 2.207032 2.601563 3.71875 1.777344 8.828124-1.859375 11.539062-22.730468 15.949219-43.042968 23.964844-60.632812 23.964844zm0 0" fill="#f0785a"/><path d="m54.644531 263.511719c-17.539062.132812-34.828125-4.148438-50.277343-12.453125-2.964844-1.785156-4.535157-5.203125-3.949219-8.613282.585937-3.414062 3.203125-6.113281 6.59375-6.808593 33.976562-6.796875 35.0625-25.179688 35.085937-26.019531.175782-4.523438 3.867188-8.113282 8.394532-8.164063h.167968c4.542969.035156 8.21875 3.710937 8.25 8.257813 0 1.066406-.242187 21.578124-25.398437 34.582031 21.53125 5.007812 44.144531 2.1875 63.789062-7.957031 28.402344-14.195313 46.164063-18.011719 55.902344-11.988282 3.957031 2.332032 6.4375 6.53125 6.570313 11.121094.007812 4.050781-2.878907 7.53125-6.863282 8.269531-3.980468.738281-7.921875-1.472656-9.371094-5.253906-2.75-.429687-12.589843-.226563-38.769531 12.890625-15.523437 7.917969-32.695312 12.078125-50.125 12.136719zm0 0" fill="#f0785a"/><path d="m8.691406 311.011719c-.941406-.003907-1.875-.160157-2.761718-.46875-2.464844-.859375-4.390626-2.8125-5.210938-5.289063-1.007812-3.089844-8.023438-30.921875 55.949219-58.335937 4.179687-1.492188 8.800781.523437 10.546875 4.609375 1.742187 4.082031.003906 8.816406-3.964844 10.800781-14.722656 5.503906-28.1875 13.910156-39.59375 24.71875 14.902344-4.414063 30.71875-4.75 45.796875-.964844 29.207031 7.261719 59.785156-15.109375 60.085937-15.367187 2.398438-1.800782 5.578126-2.183594 8.335938-1.003906 2.757812 1.175781 4.675781 3.738281 5.035156 6.714843.359375 2.976563-.898437 5.917969-3.296875 7.71875-1.496093 1.125-37.226562 27.496094-74.214843 18.214844-17.65625-4.332031-36.296876-1.738281-52.097657 7.25-1.367187.902344-2.96875 1.390625-4.609375 1.402344zm0 0" fill="#f0785a"/><path d="m59.050781 369.765625c-3.183593 0-6.089843-1.800781-7.511719-4.648437-.78125-1.589844-18.832031-39.257813 25.105469-76.070313 2.300781-1.929687 5.449219-2.480469 8.269531-1.453125 2.816407 1.027344 4.871094 3.476562 5.390626 6.433594.519531 2.953125-.574219 5.957031-2.875 7.886718-12.824219 9.261719-21.242188 23.421876-23.257813 39.113282 14.226563-14.15625 33.570313-21.953125 53.632813-21.621094 37.957031 0 65.933593-2.621094 88.074218-15.628906 2.585938-1.523438 5.785156-1.546875 8.394532-.070313 2.609374 1.480469 4.230468 4.238281 4.253906 7.238281.023437 2.996094-1.554688 5.78125-4.136719 7.300782-28.167969 16.5625-63.160156 17.945312-96.585937 17.945312-21.035157-.304687-40.605469 10.753906-51.199219 28.933594-1.429688 2.859375-4.355469 4.65625-7.554688 4.640625zm0 0" fill="#f0785a"/><path d="m226.921875 227.078125c0 13.90625-11.273437 25.179687-25.179687 25.179687s-25.183594-11.273437-25.183594-25.179687 11.277344-25.179687 25.183594-25.179687 25.179687 11.273437 25.179687 25.179687zm0 0" fill="#fff"/><g fill="#f0785a"><path d="m302.460938 344.585938c-3.390626 0-6.449219-2.042969-7.75-5.175782-1.300782-3.132812-.585938-6.742187 1.808593-9.144531.511719-.519531 30.214844-31.179687 22.898438-67.988281-.707031-2.984375.273437-6.117188 2.554687-8.167969s5.5-2.695313 8.394532-1.679687c2.894531 1.019531 5.003906 3.53125 5.5 6.558593 9.175781 45.84375-25.96875 81.617188-27.472657 83.09375-1.566406 1.589844-3.699219 2.492188-5.933593 2.503907zm0 0"/><path d="m378.003906 327.796875c-2.914062.015625-5.628906-1.484375-7.167968-3.957031-1.539063-2.472656-1.6875-5.570313-.386719-8.179688.226562-.453125 22.148437-45.324218 1.578125-65.863281-3.179688-3.292969-3.136719-8.527344.101562-11.765625 3.238282-3.238281 8.472656-3.28125 11.765625-.101562 29.125 29.125 2.710938 82.953124 1.578125 85.226562-1.414062 2.832031-4.304687 4.628906-7.46875 4.640625zm0 0"/><path d="m453.542969 277.4375c-3.984375-.003906-7.417969-2.808594-8.214844-6.714844-.078125-.386718-8.109375-38.214844-37.496094-52.878906-4.148437-2.070312-5.832031-7.113281-3.757812-11.265625 2.070312-4.148437 7.113281-5.832031 11.261719-3.757813 36.824218 18.414063 46.074218 62.742188 46.441406 64.628907.875 4.515625-2.046875 8.898437-6.554688 9.820312-.550781.113281-1.113281.171875-1.679687.167969zm0 0"/><path d="m495.511719 185.109375c-2.199219-.007813-4.3125-.878906-5.875-2.425781-1.035157-1-22.25-20.898438-58.132813-6.5625-2.785156 1.113281-5.953125.652344-8.3125-1.203125-2.355468-1.855469-3.542968-4.828125-3.113281-7.796875s2.410156-5.484375 5.195313-6.597656c46.550781-18.632813 75.003906 9.058593 76.195312 10.257812 2.40625 2.40625 3.121094 6.019531 1.816406 9.160156-1.304687 3.136719-4.375 5.175782-7.773437 5.167969zm0 0"/><path d="m478.722656 109.570312c-1.292968.011719-2.570312-.277343-3.734375-.839843-.601562-.3125-29.703125-14.269531-50.359375-.539063-3.855468 2.574219-9.070312 1.53125-11.640625-2.324218-2.574219-3.855469-1.53125-9.070313 2.324219-11.640626 28.90625-19.265624 65.609375-1.300781 67.148438-.53125 3.445312 1.757813 5.246093 5.640626 4.359374 9.402344-.886718 3.765625-4.230468 6.4375-8.097656 6.472656zm0 0"/><path d="m394.789062 75.996094c-4.632812 0-8.390624-3.757813-8.390624-8.394532 0-31.375 38.296874-41.3125 39.933593-41.714843 4.496094-1.128907 9.058594 1.601562 10.1875 6.097656 1.128907 4.496094-1.601562 9.054687-6.097656 10.183594-.269531.070312-27.238281 7.167969-27.238281 25.433593 0 4.636719-3.757813 8.394532-8.394532 8.394532zm0 0"/><path d="m336.035156 59.207031c-3.195312.019531-6.125-1.78125-7.554687-4.640625-10.265625-20.546875 6.933593-47.382812 8.921875-50.359375 1.664062-2.496093 4.53125-3.917969 7.527344-3.726562 2.992187.191406 5.65625 1.96875 6.984374 4.65625 1.332032 2.6875 1.128907 5.882812-.535156 8.378906-3.652344 5.503906-12.910156 23.5-7.871094 33.570313 1.285157 2.59375 1.140626 5.667968-.378906 8.132812-1.515625 2.464844-4.199218 3.972656-7.09375 3.988281zm0 0"/><path d="m285.675781 75.996094c-1.300781 0-2.582031-.304688-3.742187-.882813-12.597656-6.144531-20.824219-18.691406-21.4375-32.691406-.023438-4.636719 3.714844-8.414063 8.351562-8.4375 4.632813-.023437 8.410156 3.71875 8.433594 8.351563.582031 7.664062 5.210938 14.433593 12.144531 17.753906 3.488281 1.738281 5.320313 5.644531 4.425781 9.4375-.894531 3.792968-4.28125 6.472656-8.175781 6.46875zm0 0"/></g><path d="m159.773438 386.550781c0 13.90625-11.273438 25.183594-25.179688 25.183594s-25.179688-11.277344-25.179688-25.183594 11.273438-25.179687 25.179688-25.179687 25.179688 11.273437 25.179688 25.179687zm0 0" fill="#547580"/><path d="m226.921875 411.734375c0 9.269531-7.515625 16.785156-16.789063 16.785156-9.269531 0-16.785156-7.515625-16.785156-16.785156 0-9.273437 7.515625-16.789063 16.785156-16.789063 9.273438 0 16.789063 7.515626 16.789063 16.789063zm0 0" fill="#84b5cb"/><path d="m210.132812 352.976562c4.636719-.019531 8.414063 3.71875 8.4375 8.351563.023438 4.636719-3.714843 8.414063-8.351562 8.4375h-.085938c-4.632812 0-8.390624-3.757813-8.390624-8.394531 0-4.632813 3.757812-8.394532 8.390624-8.394532zm0 0" fill="#84b5cb"/><path d="m201.742188 210.289062c9.269531-.042968 16.820312 7.4375 16.867187 16.707032.042969 9.273437-7.4375 16.824218-16.710937 16.867187h-.15625c-9.273438 0-16.789063-7.515625-16.789063-16.785156 0-9.273437 7.515625-16.789063 16.789063-16.789063zm0 0" fill="#2c2f38"/><path d="m134.59375 42.421875c0 9.269531-7.515625 16.785156-16.789062 16.785156-9.269532 0-16.785157-7.515625-16.785157-16.785156 0-9.273437 7.515625-16.789063 16.785157-16.789063 9.273437 0 16.789062 7.515626 16.789062 16.789063zm0 0" fill="#84b5cb"/><path d="m159.773438 8.847656c3-.015625 5.777343 1.570313 7.289062 4.160156 1.511719 2.589844 1.53125 5.789063.042969 8.394532-1.488281 2.601562-4.25 4.21875-7.246094 4.230468h-.085937c-4.636719 0-8.394532-3.757812-8.394532-8.390624 0-4.636719 3.757813-8.394532 8.394532-8.394532zm0 0" fill="#547580"/><path d="m218.527344 218.683594c0 4.636718-3.757813 8.394531-8.394532 8.394531-4.632812 0-8.390624-3.757813-8.390624-8.394531 0-4.636719 3.757812-8.394532 8.390624-8.394532 4.636719 0 8.394532 3.757813 8.394532 8.394532zm0 0" fill="#fff"/></svg>