<svg height="512pt" viewBox="0 -35 512.00394 512" width="512pt" xmlns="http://www.w3.org/2000/svg"><path d="m105.933594 282.175781c-23.039063-20.179687-37.324219-40.023437-58.148438-62.5625-10.78125-11.632812-20.84375-23.914062-30.128906-36.773437-8.21875-11.433594-17.65234375-23.914063-17.65234375-38.71875-.15625025-15.726563 8.72656275-30.144532 22.84374975-37.078125 14.113282-6.933594 30.957032-5.148438 43.308594 4.582031.097656.109375.300781.203125.40625.3125l-.203125.203125c-.105469-.097656-.105469-.3125-.203125-.515625-3.140625-5.867188-4.757812-12.429688-4.714844-19.082031-.042968-10.90625 4.246094-21.382813 11.929688-29.121094 7.683594-7.742187 18.125-12.113281 29.03125-12.148437 12.816406 0 24.882812 6.042968 32.566406 16.304687.398438-.292969.851562-.503906 1.332031-.617187-2.113281-4.960938-3.195312-10.296876-3.179687-15.6875-.179688-21.289063 15.992187-39.15625 37.191406-41.09375s40.34375 12.703124 44.023438 33.667968c.308593 0 .609374-.105468.820312-.105468-.085938-.921876-.125-1.851563-.105469-2.78125 0-14.632813 7.808594-28.15625 20.480469-35.472657 12.671875-7.316406 28.285156-7.316406 40.960938 0 12.671874 7.316407 20.480468 20.839844 20.480468 35.472657.015625.929687-.019531 1.859374-.109375 2.78125.214844 0 .511719.105468.824219.105468 3.679688-20.964844 22.824219-35.605468 44.023438-33.667968 21.199218 1.9375 37.371093 19.804687 37.1875 41.09375.015624 5.390624-1.0625 10.726562-3.175782 15.6875.480469.113281.933594.324218 1.332032.617187 7.675781-10.257813 19.734374-16.296875 32.546874-16.304687 10.90625.035156 21.347657 4.40625 29.03125 12.148437 7.683594 7.738281 11.972657 18.214844 11.929688 29.121094.042969 6.652343-1.574219 13.214843-4.714844 19.082031-.097656.203125-.097656.417969-.203125.515625l-.203125-.203125c.105469-.109375.308594-.203125.40625-.3125 12.351563-9.730469 29.195313-11.515625 43.308594-4.582031 14.117188 6.933593 23 21.351562 22.847656 37.078125 0 14.804687-9.457031 27.285156-17.65625 38.71875-9.28125 12.859375-19.335937 25.140625-30.113281 36.773437-20.839844 22.539063-35.125 42.382813-58.164063 62.5625zm0 0" fill="#d75e72"/><g fill="#802d40"><path d="m326.621094 264.519531c-3.421875 0-6.539063-1.980469-7.988282-5.082031-1.453124-3.101562-.980468-6.761719 1.210938-9.394531l88.273438-105.929688c3.15625-3.609375 8.613281-4.039062 12.296874-.96875 3.683594 3.066407 4.242188 8.511719 1.265626 12.265625l-88.277344 105.933594c-1.675782 2.011719-4.160156 3.175781-6.78125 3.175781zm0 0"/><path d="m300.140625 238.039062c-3.011719 0-5.8125-1.535156-7.4375-4.070312-1.621094-2.535156-1.839844-5.722656-.578125-8.457031l52.964844-114.757813c2.042968-4.429687 7.289062-6.359375 11.714844-4.316406 4.425781 2.042969 6.359374 7.285156 4.316406 11.710938l-52.964844 114.761718c-1.445312 3.125-4.574219 5.128906-8.015625 5.128906zm0 0"/><path d="m273.65625 229.210938c-2.542969 0-4.96875-1.097657-6.644531-3.011719-1.679688-1.914063-2.449219-4.457031-2.113281-6.980469l17.65625-132.414062c.351562-3.183594 2.398437-5.921876 5.347656-7.167969 2.949218-1.242188 6.339844-.789063 8.863281 1.183593 2.523437 1.96875 3.777344 5.152344 3.285156 8.3125l-17.65625 132.414063c-.582031 4.382813-4.316406 7.65625-8.738281 7.664063zm0 0"/><path d="m185.382812 264.519531c-2.621093 0-5.105468-1.164062-6.78125-3.175781l-88.277343-105.933594c-2.109375-2.410156-2.746094-5.777344-1.664063-8.792968 1.082032-3.015626 3.714844-5.207032 6.875-5.726563 3.164063-.523437 6.359375.710937 8.351563 3.222656l88.273437 105.929688c2.191406 2.632812 2.664063 6.292969 1.210938 9.394531-1.449219 3.101562-4.566406 5.082031-7.988282 5.082031zm0 0"/><path d="m211.863281 238.039062c-3.441406 0-6.570312-2.003906-8.015625-5.128906l-52.964844-114.761718c-2.042968-4.425782-.109374-9.667969 4.316407-11.710938s9.671875-.113281 11.714843 4.316406l52.964844 114.757813c1.261719 2.734375 1.042969 5.921875-.578125 8.457031-1.625 2.535156-4.425781 4.070312-7.4375 4.070312zm0 0"/><path d="m238.347656 229.210938c-4.421875-.007813-8.15625-3.28125-8.738281-7.664063l-17.65625-132.414063c-.527344-4.769531 2.851563-9.085937 7.609375-9.71875 4.753906-.632812 9.148438 2.648438 9.886719 7.390626l17.65625 132.414062c.335937 2.523438-.433594 5.066406-2.113281 6.980469-1.675782 1.914062-4.101563 3.011719-6.644532 3.011719zm0 0"/><path d="m475.101562 326.3125c-3.453124.707031-6.175781 3.363281-6.972656 6.796875-1.675781 6.796875-9.179687 10.859375-20.214844 10.859375-13.683593 0-23.21875-6.972656-23.21875-13.242188 0-17.300781-17.917968-30.894531-40.871093-30.894531-22.949219 0-40.871094 13.59375-40.871094 30.894531 0 6.269532-9.535156 13.242188-23.214844 13.242188-13.683593 0-23.21875-6.972656-23.21875-13.242188 0-17.300781-17.917969-30.894531-40.871093-30.894531-22.953126 0-40.871094 13.59375-40.871094 30.894531 0 6.269532-9.535156 13.242188-23.214844 13.242188-11.035156 0-18.539062-4.0625-20.21875-10.859375-.125-.613281-.332031-1.207031-.617188-1.765625.074219-.195312.101563-.40625.089844-.617188 0-17.300781-18.363281-30.894531-41.753906-30.894531-23.394531 0-41.753906 13.59375-41.753906 30.894531 0 6.269532-9.535156 13.242188-23.21875 13.242188-11.035156 0-18.539063-4.0625-20.214844-10.859375-.796875-3.433594-3.519531-6.089844-6.972656-6.796875 6.441406-17.917969 34.601562-33.808594 75.917968-45.019531 23.027344-6.074219 46.488282-10.351563 70.175782-12.800781h146.011718c23.6875 2.449218 47.148438 6.726562 70.175782 12.800781 41.316406 11.210937 69.476562 27.101562 75.917968 45.019531zm0 0"/></g><path d="m315.324219 352.621094c28.382812-31.867188 26.523437-80.460938-4.210938-110.066406-30.734375-29.605469-79.367187-29.640626-110.144531-.082032-30.78125 29.558594-32.710938 78.152344-4.375 110.058594zm0 0" fill="#d1d4d1"/><path d="m213.875 295.480469c-.898438 0-1.789062-.140625-2.648438-.417969-4.644531-1.460938-7.230468-6.410156-5.769531-11.058594.535157-1.707031 1.160157-3.382812 1.871094-5.023437 10.625-24.816407 38.214844-37.667969 64.050781-29.835938 4.667969 1.414063 7.300782 6.34375 5.882813 11.011719-1.414063 4.664062-6.34375 7.300781-11.011719 5.882812-18.542969-5.542968-38.105469 4.808594-43.953125 23.261719-1.15625 3.675781-4.566406 6.179688-8.421875 6.179688zm0 0" fill="#fff"/><path d="m476.691406 334.523438c.003906 2.925781-.535156 5.832031-1.589844 8.5625.011719.097656-.019531.195312-.085937.265624-1.074219 4.554688-2.675781 8.96875-4.769531 13.152344-23.65625 48.816406-110.609375 84.921875-214.242188 84.921875-103.636718 0-190.589844-36.105469-214.246094-84.921875-2.09375-4.183594-3.695312-8.597656-4.769531-13.152344.011719-.097656-.019531-.195312-.085937-.265624-1.054688-2.730469-1.59375-5.636719-1.589844-8.5625-.015625-.5.015625-1.003907.089844-1.5-.011719-.097657.019531-.195313.085937-.265626v-.265624c-.023437-.023438-.035156-.054688-.035156-.085938 0-.035156.011719-.066406.035156-.089844-.074219-.378906-.101562-.761718-.085937-1.148437-.179688-.085938 0-.175781 0-.351563l.175781.96875c.058594-.921875.207031-1.839844.441406-2.734375.265625-.882812.527344-1.855469.882813-2.738281 3.453125.707031 6.175781 3.363281 6.972656 6.796875 1.675781 6.796875 9.179688 10.859375 20.214844 10.859375 13.683594 0 23.21875-6.972656 23.21875-13.242188 0-17.300781 18.359375-30.894531 41.753906-30.894531 23.390625 0 41.753906 13.59375 41.753906 30.894531.011719.210938-.015625.421876-.089844.617188.285157.558594.492188 1.152344.617188 1.765625 1.679688 6.796875 9.183594 10.859375 20.21875 10.859375 13.679688 0 23.214844-6.972656 23.214844-13.242188 0-17.300781 17.917968-30.894531 40.871094-30.894531 22.953124 0 40.871093 13.59375 40.871093 30.894531 0 6.269532 9.535157 13.242188 23.21875 13.242188 13.679688 0 23.214844-6.972656 23.214844-13.242188 0-17.300781 17.921875-30.894531 40.871094-30.894531 22.953125 0 40.871093 13.59375 40.871093 30.894531 0 6.269532 9.535157 13.242188 23.21875 13.242188 11.035157 0 18.539063-4.0625 20.214844-10.859375.796875-3.433594 3.519532-6.089844 6.972656-6.796875.355469.882812.617188 1.855469.882813 2.738281.234375.894531.382813 1.8125.441406 2.734375l.175781-.96875c0 .175782.179688.265625 0 .351563.015626.386719-.011718.769531-.085937 1.148437.089844.132813.089844.308594 0 .441406.066406.070313.097656.167969.085937.265626.074219.496093.105469 1 .089844 1.5zm0 0" fill="#d75e72"/></svg>