<svg id="Capa_1" enable-background="new 0 0 512 512" height="512" viewBox="0 0 512 512" width="512" xmlns="http://www.w3.org/2000/svg"><g><g><path d="m382.336 163.956c-.77-.361-1.592-.678-2.47-.947-8.867-2.718-18.588 3.592-25.258 8.79-8.528 6.646-15.594 15.498-20.094 25.337-9.237 20.191-3.393 38.634 4.823 53.629 1.267 2.313 3.966 3.446 6.514 2.765 10.174-2.72 35.274-11.382 43.414-32.155 4.259-10.869 6.107-23.008 4.806-34.633-1.013-9.046-3.043-18.709-11.735-22.786z" fill="#fe7d43"/><path d="m388.439 168.871c-5.161 1.775-10.075 5.172-13.946 8.186-8.526 6.648-15.597 15.505-20.098 25.342-8.062 17.611-4.645 33.9 1.817 47.722-4.088 1.6-7.732 2.705-10.364 3.406-2.539.681-5.244-.454-6.514-2.766-8.217-14.989-14.06-33.435-4.821-53.626 4.501-9.837 11.572-18.694 20.098-25.332 6.668-5.203 16.392-11.51 25.26-8.795.877.268 1.693.588 2.467.95 2.57 1.207 4.552 2.9 6.101 4.913z" fill="#fd6930"/><path d="m414.983 123.325c.109-.843.283-1.707.528-2.592 2.473-8.937 13.019-13.744 20.986-16.575 10.188-3.62 21.45-4.821 32.166-3.33 21.992 3.061 34.405 17.9 42.635 32.885 1.269 2.311.775 5.197-1.169 6.979-7.761 7.117-28.555 23.629-50.447 19.33-11.455-2.249-22.685-7.214-31.79-14.558-7.084-5.714-14.142-12.618-12.909-22.139z" fill="#fe7d43"/><path d="m510.133 140.69c-2.168 1.992-5.358 4.717-9.301 7.505-8.227-14.235-20.491-27.84-41.435-30.762-10.715-1.486-21.977-.289-32.165 3.334-3.923 1.394-8.465 3.262-12.356 5.874-.072-1.063-.041-2.168.103-3.314.114-.846.289-1.714.537-2.591 2.467-8.939 13.017-13.75 20.986-16.578 10.189-3.623 21.451-4.821 32.166-3.334 21.987 3.066 34.405 17.9 42.633 32.888 1.268 2.312.773 5.202-1.168 6.978z" fill="#fd6930"/><path d="m278.617 93.98c15.46 26.508 39.116 34.297 62.966 51.825.325.239 1.493 6.86 1.815 7.102 15.147 11.374 26.674 25.772 35.539 41.903 1.586 2.887 5.138 4.604 6.786 7.451 6.277 10.84 10.707 22.748 14.108 35.12 1.126 4.097 1.523 8.151 2.401 12.307.61 2.885-1.553 7.951-1.063 10.859 7.247 42.98 1.485 88.144-16.666 127.796 23.527-9.087 43.352-29.677 57.115-52.917 1.305-2.204 1.443-7.851 2.637-10.095 4.224-7.937 6.285-16.903 9.005-24.914 6.755-19.892 10.221-36.174 12.607-59.133.274-2.633 4.633-7.083 4.836-9.73 1.99-25.946.521-52.417-5.683-76.829-8.812-34.671-22.509-73.471-45.11-103.259-.594-.783-3.782.914-4.389.144-18.797-23.875-41.698-39.697-74.628-44.046-25.05-3.305-54.295 5.159-66.329 29.264-9.472 18.976-6.429 39.178 4.053 57.152z" fill="#fd9468"/><path d="m454.462 300.716c-2.532 7.46-6.364 17.197-10.206 24.614-1.45 2.8-1.016 7.354-2.639 10.094-13.76 23.241-33.584 43.831-57.112 52.918 2.415-5.285 4.614-10.663 6.596-16.124 20.635-17.394 36.388-43.087 44.697-67.562 15.123-44.532 21.543-101.317 9.187-149.927-16.154-63.598-48.763-141.091-122.601-151.372 6.638-.867 13.182-.908 19.221-.114 74.416 9.827 107.191 87.65 123.418 151.486 6.178 24.305 7.659 50.653 5.706 76.492-.451 5.959-3.948 9.614-4.86 15.164-3.043 18.52-5.589 37.199-11.407 54.331z" fill="#fe7d43"/><path d="m285.265 448.296c16.367 2.47 46.822 3.803 74.147-12.944-.463 32.046 16.222 57.558 26.697 70.374 4.256 5.208 12.437 4.687 15.893-1.083 22.94-38.297 7.835-105.663.957-130.828-1.522-5.57-7.273-8.845-12.84-7.313-25.152 6.924-90.797 28.304-112.031 67.572-3.2 5.917.526 13.218 7.177 14.222z" fill="#fe7d43"/><path d="m402.003 504.647c-3.458 5.77-11.634 6.287-15.897 1.074-1.012-1.239-2.075-2.591-3.179-4.057 20.49-38.72 5.977-103.32-.723-127.847-.454-1.662-1.28-3.117-2.384-4.305 3.902-1.208 7.37-2.209 10.302-3.014 5.564-1.528 11.314 1.745 12.841 7.319 6.875 25.167 21.977 92.533-.96 130.83z" fill="#fd6930"/><path d="m419.905 51.47c-17.137 54.623-48.631 84.838-76.512 101.445-.313-.249-.646-.491-.966-.726-23.846-17.532-52.535-31.05-67.998-57.564-10.483-17.969-13.152-40.407-3.674-59.387 12.031-24.106 45.803-35.297 70.85-31.988 33.992 4.487 59.296 23.169 78.3 48.22z" fill="#fef1da"/><path d="m419.902 51.471c-2.157 6.885-4.542 13.378-7.123 19.5-19.86-34.293-48.475-61.761-90.364-67.614 6.617-.857 13.161-.898 19.19-.103 4.147.569 8.28 1.316 12.346 2.333 5.162 1.291 10.898 2.806 15.67 5.192.021.01.031.021.043.022 2.264.158 5.54 2.532 7.552 3.575 13.338 6.913 25.269 16.691 35.255 28.012 1.941 2.188 3.809 4.449 5.636 6.751.598.773 1.197 1.547 1.795 2.332z" fill="#fae2c0"/><g><path d="m314.992 90.233c-1.631 0-3.275-.513-4.673-1.576l-6.064-4.606c-3.403-2.585-4.066-7.439-1.482-10.841 2.584-3.403 7.44-4.067 10.841-1.482l6.064 4.606c3.403 2.585 4.066 7.439 1.482 10.841-1.523 2.004-3.832 3.058-6.168 3.058z" fill="#7a6d79"/></g><g><path d="m346.953 50.031c-1.631 0-3.275-.513-4.674-1.576l-6.064-4.606c-3.403-2.585-4.066-7.439-1.482-10.841 2.585-3.403 7.44-4.068 10.841-1.482l6.064 4.606c3.403 2.585 4.066 7.439 1.482 10.841-1.522 2.004-3.831 3.058-6.167 3.058z" fill="#7a6d79"/></g><path d="m427.182 224.436c-2.17 7.298-5.811 14.162-10.642 20.055-4.624 5.647-10.452 10.629-15.38 16.057-1.191-7.097-2.739-14.136-4.642-21.073-4.292-15.621-9.953-30.791-17.589-44.66 7.768-2.223 15.872-3.318 23.957-3.217 7.432.09 15.451 1.469 20.603 6.817 6.372 6.624 6.315 17.215 3.693 26.021z" fill="#fef1da"/><path d="m470.709 231.553c-1.969 25.731-7.346 50.931-14.882 73.114-3.488 10.275-8.286 20.765-14.209 30.757-.247-.088-.497-.185-.747-.282-9.298-3.761-16.469-12.381-18.492-22.198-1.884-9.227.627-18.979 5.495-27.048 5.22-8.645 14.111-12.22 15.917-23.103.551-3.285.454-6.66 1.144-9.918 1.89-8.953 9.605-15.768 18.13-19.086 2.487-.971 5.05-1.695 7.644-2.236z" fill="#fef1da"/><path d="m470.711 231.55c-.083 1.094-.176 2.199-.279 3.293-.093 1.032-.186 2.054-.289 3.076-1.715 17-4.827 33.83-9.301 50.334-3.781 13.949-8.68 27.664-15.474 40.495-1.123 2.12-2.296 4.216-3.52 6.276-.072.134-.144.268-.237.403-.248-.093-.485-.186-.743-.289-5.347-2.168-9.992-5.936-13.358-10.622 3.272-6.586 6.049-13.265 8.289-19.861 6.369-18.746 11.19-39.65 13.719-61.214 3.458-4.315 8.351-7.628 13.543-9.652 2.488-.969 5.059-1.692 7.65-2.239z" fill="#fae2c0"/></g><path d="m129.664 348.044c.77.361 1.592.678 2.47.947 8.867 2.718 18.588-3.592 25.258-8.79 8.528-6.646 15.594-15.498 20.094-25.337 9.237-20.191 3.393-38.634-4.823-53.629-1.267-2.313-3.966-3.446-6.514-2.765-10.174 2.72-35.274 11.382-43.414 32.155-4.259 10.869-6.107 23.008-4.806 34.633 1.013 9.046 3.043 18.709 11.735 22.786z" fill="#fe7d43"/><path d="m123.561 343.129c5.161-1.775 10.075-5.172 13.946-8.186 8.526-6.648 15.597-15.505 20.098-25.342 8.062-17.611 4.645-33.9-1.817-47.722 4.088-1.6 7.732-2.705 10.364-3.406 2.539-.681 5.244.454 6.514 2.766 8.217 14.988 14.06 33.435 4.821 53.626-4.501 9.837-11.572 18.694-20.098 25.332-6.668 5.203-16.392 11.51-25.26 8.795-.877-.268-1.693-.588-2.467-.95-2.57-1.207-4.552-2.9-6.101-4.913z" fill="#fd6930"/><path d="m97.017 388.675c-.109.843-.283 1.707-.528 2.592-2.473 8.937-13.019 13.744-20.986 16.575-10.188 3.62-21.45 4.821-32.166 3.33-21.992-3.061-34.405-17.9-42.635-32.885-1.269-2.311-.775-5.197 1.169-6.979 7.761-7.117 28.555-23.629 50.447-19.33 11.455 2.249 22.685 7.214 31.79 14.558 7.084 5.714 14.142 12.618 12.909 22.139z" fill="#fe7d43"/><path d="m1.867 371.31c2.168-1.992 5.358-4.717 9.301-7.505 8.227 14.235 20.491 27.84 41.435 30.762 10.715 1.486 21.977.289 32.165-3.334 3.923-1.394 8.465-3.262 12.356-5.874.072 1.063.041 2.168-.103 3.314-.114.846-.289 1.714-.537 2.591-2.467 8.939-13.017 13.75-20.986 16.578-10.188 3.623-21.451 4.821-32.166 3.334-21.987-3.066-34.405-17.9-42.633-32.888-1.268-2.312-.773-5.202 1.168-6.978z" fill="#fd6930"/><path d="m233.841 416.874c-14.273-24.472-37.006-35.043-59.612-50.749-1.881-1.307-2.826-4.965-4.658-6.311-15.626-11.484-27.456-26.15-36.509-42.624-3.003-5.465-6.755-2.03-9.501-6.354-4.227-6.657-7.156-20.919-9.759-30.389-.804-2.924-2.903-9.785-3.58-12.74-.931-4.061 1.3-12.145.608-16.252-7.247-42.98-1.485-88.144 16.666-127.796-23.527 9.087-43.352 29.677-57.115 52.917-1.308 2.209 2.03 8.942.833 11.191-4.22 7.932-6.347 13.697-9.065 21.702-6.056 17.836-11.391 34.489-14.01 54.942-.637 4.974-6.457 11.005-6.843 16.037-1.99 25.946-.521 52.417 5.683 76.829 8.812 34.671 22.509 73.471 45.11 103.259.791 1.043 4.261.646 5.074 1.666 18.723 23.488 41.366 38.553 73.943 42.855 25.05 3.305 55.647-5.014 67.68-29.119 9.473-18.978 5.538-41.09-4.945-59.064z" fill="#fd9468"/><path d="m241.248 476.756c-3.745 7.51-9.604 13.762-16.65 18.724.671-1.125 1.3-2.27 1.867-3.446 9.491-19.529 6.633-42.709-4.126-61.33-15.877-27.472-45.092-41.626-69.428-59.885-29.37-22.035-45.721-55.14-55.491-90.473-13.009-47.083-10.45-98.241 6.963-143.405 7.19-5.571 14.927-10.13 23.108-13.287-21.148 46.206-25.471 99.881-12.008 148.873 9.398 34.167 25.295 66.127 54.088 87.285 23.851 17.527 52.54 31.052 67.994 57.564 10.492 17.971 13.153 40.408 3.683 59.38z" fill="#fe7d43"/><path d="m226.735 63.704c-16.367-2.47-46.822-3.803-74.147 12.944.463-32.046-16.222-57.558-26.697-70.374-4.256-5.208-12.437-4.687-15.893 1.083-22.94 38.297-7.835 105.663-.957 130.828 1.522 5.57 7.273 8.845 12.84 7.312 25.152-6.924 90.797-28.304 112.031-67.572 3.2-5.916-.526-13.217-7.177-14.221z" fill="#fe7d43"/><path d="m233.913 77.922c-21.231 39.274-86.883 60.649-112.034 67.571-5.56 1.537-11.317-1.733-12.833-7.304-.743-2.723-1.589-5.942-2.466-9.573.918 0 1.857-.124 2.785-.382 24.676-6.788 88.317-27.493 110.765-65.353 2.393.237 4.601.526 6.602.825 6.655 1.001 10.379 8.305 7.181 14.216z" fill="#fd6930"/><path d="m92.095 460.53c17.137-54.623 48.631-84.838 76.512-101.445.313.249.646.491.966.726 23.846 17.532 52.535 31.05 67.998 57.564 10.483 17.969 13.152 40.407 3.674 59.387-12.031 24.106-45.803 35.297-70.85 31.988-33.992-4.487-59.296-23.169-78.3-48.22z" fill="#fef1da"/><path d="m245.663 464.366c-2.249 9.914-7.338 19.061-14.763 26.018-1.96 1.836-4.075 3.528-6.303 5.096.671-1.125 1.3-2.27 1.867-3.446 9.491-19.529 6.633-42.709-4.126-61.33-15.877-27.472-45.092-41.626-69.428-59.885-.227-.175-.464-.351-.691-.536 5.519-4.292 11.018-7.995 16.392-11.193.31.248.64.485.959.722 9.856 7.314 20.367 13.698 30.465 20.664 5.152 3.554 10.216 7.247 15.03 11.25 7.391 6.146 14.022 12.857 19.456 20.822 10.306 15.108 15.246 33.727 11.142 51.818z" fill="#fae2c0"/><g><path d="m203.061 441.847c-1.632 0-3.275-.513-4.675-1.576l-6.064-4.606c-3.403-2.585-4.066-7.439-1.481-10.841 2.585-3.403 7.439-4.065 10.841-1.482l6.064 4.606c3.403 2.585 4.066 7.439 1.481 10.841-1.522 2.004-3.831 3.058-6.166 3.058z" fill="#7a6d79"/></g><g><path d="m171.1 482.049c-1.632 0-3.275-.513-4.675-1.576l-6.064-4.606c-3.403-2.585-4.066-7.439-1.481-10.841 2.585-3.403 7.439-4.065 10.841-1.482l6.064 4.606c3.403 2.585 4.066 7.439 1.481 10.841-1.521 2.004-3.83 3.058-6.166 3.058z" fill="#7a6d79"/></g><path d="m84.818 287.564c2.17-7.298 5.811-14.162 10.642-20.055 4.624-5.647 10.452-10.629 15.38-16.057 1.191 7.097 2.739 14.136 4.642 21.073 4.292 15.621 9.953 30.791 17.589 44.66-7.768 2.223-15.872 3.318-23.957 3.217-7.432-.09-15.451-1.469-20.603-6.817-6.372-6.624-6.315-17.215-3.693-26.021z" fill="#fef1da"/><path d="m133.073 317.185c-6.736 1.929-13.71 3.012-20.715 3.198-6.252-12.648-11.1-26.172-14.938-40.037-1.063-3.869-2.032-7.758-2.889-11.668.299-.392.609-.784.928-1.166 4.622-5.653 10.44-10.626 15.381-16.062.144.887.299 1.774.464 2.661 1.466 7.881 3.276 15.41 5.519 23.099 1.456 4.989 3.013 9.727 4.797 14.587 1.51 4.114 3.162 8.156 4.938 12.151.908 2.043 1.849 4.075 2.82 6.098 1.174 2.443 2.398 4.775 3.695 7.139z" fill="#fae2c0"/><path d="m41.291 280.447c1.969-25.731 7.346-50.931 14.882-73.114 3.488-10.275 8.286-20.765 14.209-30.757.247.088.497.185.747.282 9.298 3.761 16.469 12.381 18.492 22.198 1.884 9.227-.627 18.979-5.495 27.048-5.22 8.645-14.111 12.22-15.917 23.103-.551 3.285-.454 6.66-1.144 9.918-1.89 8.953-9.605 15.768-18.13 19.086-2.487.971-5.05 1.695-7.644 2.236z" fill="#fef1da"/></g></svg>