<svg height="512" viewBox="0 0 58 58" width="512" xmlns="http://www.w3.org/2000/svg"><g id="Page-1" fill="none" fill-rule="evenodd"><g id="003---Coral" fill-rule="nonzero" transform="translate(-1 -1)"><path id="Shape" d="m52.02 36.22c-4.483465 4.6135933-10.6886699 7.1471437-17.12 6.99-.6712214-.0298593-1.2554157.4548056-1.35 1.12-.3754987 2.5390326-.552701 5.1034517-.53 7.67l-12.1-.99c-.1676027-1.7552261-.1876731-3.5214185-.06-5.28.0451324-.6274268-.362075-1.1983568-.97-1.36-3.9857431-1.0357568-7.5483464-3.2907903-10.19-6.45-.7530072-.813464-.99608618-1.9758636-.63214408-3.0229021.3639421-1.0470386 1.27558828-1.808065 2.37080048-1.979103 1.0952121-.171038 2.1954874.275789 2.8613436 1.1620051 1.6759531 2.0002502 3.8847042 3.484309 6.37 4.28.3367951.1090399.7032631.078338 1.0172204-.0852206.3139574-.1635586.5491304-.4462864.6527796-.7847794.443939-1.484795.9953968-2.9352963 1.65-4.34.2903299-.6412637.0206433-1.3972706-.61-1.71-5.2116797-2.560728-9.4305822-6.772599-12-11.98-.6878014-1.3063502-.3522506-2.9169939.8-3.84.7093582-.5434961 1.6244103-.7417168 2.4950917-.5404927.8706813.2012241 1.6059631.7808554 2.0049083 1.5804927 2.9 5.84 8.68 9.78 10.71 9.78h.01c.145318.0055323.2897085-.0254085.42-.09.2403675-.1273295.4384365-.3219236.57-.56.2-.36.38-.72.55-1.09.8024994-1.6287477 1.477846-3.3171142 2.02-5.05.1892373-.6113395-.0894694-1.2701008-.66-1.56-4.1163069-2.0899571-7.332653-5.6048369-9.05-9.89-.5694217-1.35856961-.0904161-2.93004407 1.14-3.74.7560186-.47726265 1.6851642-.59348309 2.535446-.31714152.8502818.27634158 1.5335707.91660325 1.864554 1.74714152.8446003 2.15914217 2.2537009 4.05175769 4.08 5.48.3757293.2885147.8774613.3530099 1.313944.168901.4364827-.1841088.7404582-.5884522.796056-1.058901.3318-2.47965853.5021588-4.97825336.51-7.48-.0003689-.94122572.6555876-1.75533843 1.575353-1.95518273.9197653-.1998443 1.8544072.26866719 2.244647 1.12518273.6467419 1.37402466 1.1591255 2.80735921 1.53 4.28.1399735.53137709.5938435.92091202 1.1403034.97866795.5464599.05775592 1.071733-.22829235 1.3196966-.71866795.6999089-1.40030447 2.3458171-2.04397986 3.81-1.49.779866.30838877 1.3941696.93041191 1.6927959 1.71406808.2986262.78365616.2540645 1.65675178-.1227959 2.40593192-1.2798467 2.5342368-3.3659142 4.5710548-5.93 5.79-.460891.2214538-.7529039.6886744-.75 1.2.01 1.39-.03 2.75-.14 4.16v.01c-.1040312.4242476.004282.8725968.2905177 1.202563.2862357.3299661.7147949.5005115 1.1494823.457437.1062285-.0078604.2107011-.031451.31-.07 1.906767-.6401433 3.6531088-1.6838554 5.12-3.06 1.12106-1.1771395 2.9540267-1.3071371 4.23-.3.6303134.5449469 1.005595 1.3274882 1.0359429 2.1601593.0303479.832671-.2869719 1.6404552-.8759429 2.2298407-3.3098795 3.1631997-7.5548343 5.1699056-12.1 5.72-.505995.0607419-.9290089.4132534-1.08.9-.62 1.83-1.29 3.57-1.94 5.39 0 .01-.01.03-.01.04-.03.07-.05.14-.08.21-.1471718.3896202-.0965421.8263886.135858 1.1720093.2324001.3456206.61779.5572917 1.034142.5679907.213384.028971.4302617.0188048.64-.03 3.8746384-.5496143 7.4525118-2.3843308 10.16-5.21.6318725-.6328392 1.5135534-.9500896 2.4037767-.8649378.8902232.0851518 1.6957757.5637898 2.1962233 1.3049378.8044093 1.2414851.6111794 2.8797382-.46 3.9z" fill="#ff5364"/><path id="Shape" d="m37.08 37.12c-.1895392.0163063-.379784.0229816-.57.02-.7643622.0107252-1.5279559-.0529076-2.28-.19l-1.72-.47c-.5291793-.1504033-.8374905-.7000015-.69-1.23.0669812-.258009.2354739-.4779554.4671457-.6098012.2316718-.1318457.5068223-.1643791.7628543-.0901988l1.66.46c.4269382.0679679.8578505.1080528 1.29.12 0 .01-.01.03-.01.04-.03.07-.05.14-.08.21-.1471718.3896202-.0965421.8263886.135858 1.1720093.2324001.3456206.61779.5572917 1.034142.5679907z" fill="#df4d60"/><path id="Shape" d="m41.3 22.16c-1.4453192.4741441-2.9499474.7434288-4.47.8-.2645374-.0046801-.516145-.1152665-.6984722-.3069921-.1823273-.1917256-.2801385-.4485693-.2715278-.7130079-.0012496-.2655447.1057547-.5201347.2963343-.7050535s.4482794-.2842001.7136657-.2749465c1.0108244-.0471575 2.0134559-.2047618 2.99-.47v.01c-.1040312.4242476.004282.8725968.2905177 1.202563.2862357.3299661.7147949.5005115 1.1494823.457437z" fill="#df4d60"/><path id="Shape" d="m32.13 25.82c0 .5522847-.4477153 1-1 1-1.2543476.030212-2.5075149-.0974565-3.73-.38.145318.0055323.2897085-.0254085.42-.09.2403675-.1273295.4384365-.3219236.57-.56.2-.36.38-.72.55-1.09.7267683.0858037 1.4582078.1258826 2.19.12.2652165 0 .5195704.1053568.7071068.2928932s.2928932.4418903.2928932.7071068z" fill="#df4d60"/><g fill="#fb7b76"><circle id="Oval" cx="28" cy="45" r="1"/><circle id="Oval" cx="27" cy="39" r="1"/><circle id="Oval" cx="34" cy="30" r="1"/><circle id="Oval" cx="36" cy="19" r="1"/><circle id="Oval" cx="38" cy="11" r="1"/><circle id="Oval" cx="33" cy="15" r="1"/><circle id="Oval" cx="29" cy="32" r="1"/></g><circle id="Oval" cx="11" cy="7" fill="#3b97d3" r="3"/><circle id="Oval" cx="5" cy="16" fill="#3b97d3" r="2"/><circle id="Oval" cx="4" cy="9" fill="#2980ba" r="1"/><circle id="Oval" cx="53" cy="11" fill="#3b97d3" r="2"/><circle id="Oval" cx="56" cy="17" fill="#2980ba" r="1"/><path id="Shape" d="m59 56c0 1.6568542-1.3431458 3-3 3h-52c-1.35121645.0008655-2.53626433-.9016921-2.8945417-2.2045444-.35827737-1.3028522.19864237-2.6844416 1.36030571-3.3746045 1.16166335-.690163 2.64135967-.5185602 3.61423599.4191489-.05726677-.2762377-.08409351-.5579185-.08-.84-.00176012-2.2574908 1.51085537-4.2355655 3.68993183-4.8253907 2.17907647-.5898252 4.48291367.3552247 5.62006817 2.3053907h.01c.5740069-.3577279 1.1882633-.6463948 1.83-.86 1.1740474-.3921152 2.4022616-.5979423 3.64-.61.0696736-.0083174.1398513-.0116592.21-.01 1.7173069-.0232952 3.4172333.3461054 4.97 1.08.6090837.2927073 1.1717781.6734526 1.67 1.13l.01.01c1.4544667-1.5299412 3.3809418-2.5266367 5.47-2.83 1.2764948-.2629885 2.576701-.3936793 3.88-.39 2.3073566-.0425687 4.5975795.4038885 6.72 1.31.6439237.2811414 1.2489112.6441338 1.8 1.08l.01.01c1.4156065-1.3607862 3.496666-1.7670144 5.3201096-1.0384992 1.8234436.7285153 3.0516699 2.4568932 3.1398904 4.4184992.8773907-.7990942 2.1439458-1.0045409 3.2289432-.5237636 1.0849973.4807773 1.783618 1.5570204 1.7810568 2.7437636z" fill="#f3d55b"/><path id="Shape" d="m18.1 52.91c-.0082843.5522847-.4627153.9932843-1.015.985s-.9932843-.4627153-.985-1.015c.0154811-.592258-.1099631-1.1797207-.366-1.714-.116966-.2407185-.2555342-.4703266-.414-.686.5740069-.3577279 1.1882633-.6463948 1.83-.86.6405727.976059.9716739 2.1227147.95 3.29z" fill="#f0c419"/><path id="Shape" d="m45.52 50.39c-.7798246.5945633-1.3194191 1.4501046-1.52 2.41-.099165.4616905-.5077811.7910852-.98.79-.0672762.0027973-.1346099-.0039361-.2-.02-.2599387-.0529946-.4881678-.2071045-.6344551-.428411-.1462874-.2213065-.1986434-.4916715-.1455449-.751589.2470287-1.1687635.831087-2.2395371 1.68-3.08.6439237.2811414 1.2489112.6441338 1.8 1.08z" fill="#f0c419"/><path id="Shape" d="m27.64 51.21c-.3539293.3554208-.5640507.8290843-.59 1.33-.0108913.5444587-.4554324.9801089-1 .98h-.01c-.2660666.0000543-.520956-.1069899-.7072028-.2969993-.1862468-.1900093-.2881723-.4469884-.2827972-.7130007.0229954-.8907417.347316-1.7473709.92-2.43.6090837.2927073 1.1717781.6734526 1.67 1.13z" fill="#f0c419"/></g></g></svg>