<svg height="512pt" viewBox="-4 0 511 512" width="512pt" xmlns="http://www.w3.org/2000/svg"><path d="m503.898438 299.824219s-1.476563 17.355469-26.035157 17.355469c-34.710937 0-60.746093 0-69.421875 26.035156-3.136718 11.722656-8.210937 22.839844-15.015625 32.886718-12.320312 15.96875-35.40625 26.207032-53.800781 33.671876-6.128906 2.476562-12.386719 4.621093-18.746094 6.421874-4.339844 1.300782-8.679687 2.429688-13.015625 3.382813-10.066406 2.34375-20.222656 4.082031-30.460937 5.46875-5.035156.78125-10.152344 1.386719-15.1875 1.996094-4.773438.605469-9.542969 1.128906-14.230469 1.648437-24.039063 2.691406-48.078125 4.339844-72.203125 4.773438-21.953125.347656-46.078125 2.082031-66.90625-5.816406-23.863281-9.109376-30.113281-28.289063-29.417969-51.890626.867188-27.769531-.347656-55.453124-1.128906-83.222656l-.78125-55.453125c-.171875-29.679687-.34375-59.355469-3.382813-88.863281-2.863281-27.769531-1.042968-59.007812 25.773438-74.542969 4.261719-2.441406 8.769531-4.417969 13.449219-5.902343 22.628906-7.140626 46.222656-10.738282 69.945312-10.671876 24.882813-1.320312 49.832031-.070312 74.457031 3.730469 35.148438 6.769531 64.132813 31.933594 84.523438 60.226563 23.996094 31.117187 43.242188 65.628906 57.101562 102.398437 1.128907 3.386719 2.257813 6.855469 3.296876 10.242188 4.078124 13.621093 6.421874 27.679687 17.445312 37.921875 15.445312 14.316406 38.441406 10.847656 57.707031 10.847656 26.035157 0 26.035157 17.355469 26.035157 17.355469zm0 0" fill="#f0c419"/><path d="m503.898438 299.824219s-1.476563 17.355469-26.035157 17.355469c-34.710937 0-60.746093 0-69.421875 26.035156-3.136718 11.722656-8.210937 22.839844-15.015625 32.886718-12.320312 15.96875-35.40625 26.207032-53.800781 33.671876-2.953125 1.214843-5.902344 2.257812-8.851562 3.296874 5.53125-24.097656 8.066406-48.785156 7.546874-73.5l.175782-31.851562s1.300781-164.792969-14.144532-208.09375c6.503907 6.691406 12.511719 13.855469 17.960938 21.433594 23.996094 31.117187 43.242188 65.628906 57.101562 102.398437 1.128907 3.386719 2.257813 6.855469 3.296876 10.242188 4.078124 13.621093 6.421874 27.679687 17.445312 37.921875 15.445312 14.316406 38.441406 10.847656 57.707031 10.847656 26.035157 0 26.035157 17.355469 26.035157 17.355469zm0 0" fill="#f0c419"/><path d="m338.496094 307.71875-.175782 31.851562c.519532 24.714844-2.015624 49.402344-7.546874 73.5-4.773438 1.648438-9.632813 3.125-14.492188 4.425782-14.351562-23.382813-32.304688-44.351563-53.199219-62.132813-3.683593-61.96875-1.507812-124.148437 6.511719-185.710937 4.144531-37.734375-2.445312-75.875-19.007812-110.035156 2.429687.347656 4.773437.78125 7.203124 1.214843 25.65625 5.757813 48.902344 19.308594 66.5625 38.792969 15.445313 43.300781 14.144532 208.09375 14.144532 208.09375zm0 0" fill="#f29c1f"/><path d="m269.59375 169.652344c-8.019531 61.5625-10.195312 123.742187-6.511719 185.710937-17.789062-15.539062-39.589843-25.761719-62.914062-29.503906 0 0 11.800781 64.996094 69.425781 100.230469-7.292969.953125-14.492188 1.820312-21.609375 2.601562-15.882813 1.824219-31.847656 3.125-47.816406 3.90625-75.757813-95.632812 0-254.527344 0-297.65625-.589844-26.800781-6.367188-53.234375-17.007813-77.839844h.171875c22.449219-1.03125 44.945313-.1875 67.253907 2.515626 16.5625 34.160156 23.152343 72.300781 19.007812 110.035156zm0 0" fill="#f0c419"/><path d="m200.167969 432.597656c-8.070313.433594-16.226563.691406-24.386719.867188-21.953125.347656-46.078125 2.082031-66.90625-5.816406-23.863281-9.109376-30.113281-28.289063-29.417969-51.890626.867188-27.769531-.347656-55.453124-1.128906-83.222656l-.78125-55.453125c-.171875-29.679687-.34375-59.355469-3.382813-88.863281-2.863281-27.769531-1.042968-59.007812 25.773438-74.542969 4.261719-2.441406 8.769531-4.417969 13.449219-5.902343 22.566406-7.136719 46.105469-10.738282 69.773437-10.671876 10.640625 24.605469 16.417969 51.039063 17.007813 77.839844 0 43.128906-75.757813 202.023438 0 297.65625zm0 0" fill="#f29c1f"/><path d="m165.457031 126.300781c0 14.375-11.65625 26.03125-26.035156 26.03125s-26.035156-11.65625-26.035156-26.03125c0-14.378906 11.65625-26.035156 26.035156-26.035156s26.035156 11.65625 26.035156 26.035156zm0 0" fill="#2c2f38"/><path d="m122.066406 239.113281c-12.941406 4.558594-26.976562 5.011719-40.1875 1.300781-1.039062-.246093-2.015625-.710937-2.863281-1.363281-.589844-.574219-1.089844-1.234375-1.476563-1.960937-10.5-17.503906-21.449218-36.222656-38.875-47.726563-6.566406-5.496093-15.820312-6.414062-23.335937-2.320312-12.027344 8.019531-14.441406 52.199219-14.753906 86.78125-.191407 20.785156 0 38.105469.375 41.992187 1.265625 13.78125 11.117187 33.914063 28.105469 29.617188 5.980468-1.96875 11.203124-5.734375 14.972656-10.777344 11.191406-12.050781 21.6875-24.726562 31.4375-37.972656 1.753906-3.328125 4.628906-5.929688 8.113281-7.34375 4.542969-1.351563 9.253906-2.058594 13.992187-2.097656 8.328126-.09375 16.613282 1.238281 24.496094 3.9375zm0 0" fill="#f0c419"/><path d="m320.878906 416.195312c-4.339844 1.300782-8.679687 2.429688-13.015625 3.382813-1.023437-.675781-1.859375-1.601563-2.429687-2.6875-.433594-.695313-36.710938-64.652344-93.550782-79.839844 10.371094 32.449219 32.503907 59.84375 62.046876 76.800781 3.925781 2.234376 5.445312 7.132813 3.472656 11.195313-5.035156.78125-10.152344 1.386719-15.1875 1.996094-36.714844-21.695313-62.414063-58.039063-70.636719-99.882813-.351563-2.699218.539063-5.414062 2.429687-7.378906 1.867188-1.929688 4.539063-2.863281 7.203126-2.515625 72.980468 9.113281 117.5 87.820313 119.320312 91.207031 1.367188 2.363282 1.496094 5.246094.347656 7.722656zm0 0" fill="#d25627"/><path d="m425.796875 17.355469c0 9.585937-7.773437 17.355469-17.355469 17.355469-9.585937 0-17.359375-7.769532-17.359375-17.355469 0-9.585938 7.773438-17.355469 17.359375-17.355469 9.582032 0 17.355469 7.769531 17.355469 17.355469zm0 0" fill="#84b5cb"/><path d="m460.507812 43.390625c0 4.792969-3.886718 8.675781-8.679687 8.675781s-8.675781-3.882812-8.675781-8.675781 3.882812-8.679687 8.675781-8.679687 8.679687 3.886718 8.679687 8.679687zm0 0" fill="#547580"/><path d="m35.285156 477.289062c0 9.585938-7.769531 17.355469-17.355468 17.355469-9.585938 0-17.355469-7.769531-17.355469-17.355469 0-9.585937 7.769531-17.355468 17.355469-17.355468 9.585937 0 17.355468 7.769531 17.355468 17.355468zm0 0" fill="#547580"/><path d="m70 503.320312c0 4.792969-3.886719 8.679688-8.679688 8.679688-4.792968 0-8.675781-3.886719-8.675781-8.679688 0-4.789062 3.882813-8.675781 8.675781-8.675781 4.792969 0 8.679688 3.886719 8.679688 8.675781zm0 0" fill="#84b5cb"/><path d="m460.507812 399.1875c0 4.792969-3.886718 8.675781-8.679687 8.675781s-8.675781-3.882812-8.675781-8.675781 3.882812-8.679688 8.675781-8.679688 8.679687 3.886719 8.679687 8.679688zm0 0" fill="#84b5cb"/><path d="m61.582031 314.578125c-5.726562 6.765625-11.804687 13.277344-17.53125 20.042969-3.78125 5.0625-9.019531 8.847656-15.011719 10.847656-17.007812 4.253906-26.816406-15.878906-28.117187-29.675781-.347656-3.90625-.519531-21.175781-.347656-42.003907.347656-34.539062 2.691406-78.707031 14.753906-86.777343 7.523437-4.09375 16.785156-3.164063 23.34375 2.339843 8.171875 5.542969 15.308594 12.476563 21.085937 20.480469-1.300781 18.570313-4.597656 74.980469 1.824219 104.746094zm0 0" fill="#2c2f38"/><path d="m373.726562 251.660156c0 9.585938-7.769531 17.355469-17.355468 17.355469-9.585938 0-17.355469-7.769531-17.355469-17.355469 0-9.585937 7.769531-17.355468 17.355469-17.355468 9.585937 0 17.355468 7.769531 17.355468 17.355468zm0 0" fill="#fff"/><path d="m365.050781 251.660156c0 4.792969-3.886719 8.679688-8.679687 8.679688-4.792969 0-8.675782-3.886719-8.675782-8.679688 0-4.792968 3.882813-8.675781 8.675782-8.675781 4.792968 0 8.679687 3.882813 8.679687 8.675781zm0 0" fill="#2c2f38"/><path d="m356.371094 242.984375c-.019532 4.074219-2.871094 7.589844-6.855469 8.445313-3.984375.855468-8.027344-1.179688-9.71875-4.886719 1.722656-5.457031 6-9.734375 11.453125-11.457031 3.113281 1.398437 5.113281 4.488281 5.121094 7.898437zm0 0" fill="#fff"/></svg>